solid OpenSCAD_Model
  facet normal 0 1 -0
    outer loop
      vertex 72.5 75 0
      vertex 62.5 75 2
      vertex 72.5 75 2
    endloop
  endfacet
  facet normal 0 1 0
    outer loop
      vertex 62.5 75 2
      vertex 72.5 75 0
      vertex 62.5 75 0
    endloop
  endfacet
  facet normal 0 0 1
    outer loop
      vertex 72.5 75 2
      vertex 69.2 68.25 2
      vertex 72.5 61.5 2
    endloop
  endfacet
  facet normal 0 0 1
    outer loop
      vertex 72.5 75 2
      vertex 69.1907 68.4277 2
      vertex 69.2 68.25 2
    endloop
  endfacet
  facet normal 0 0 1
    outer loop
      vertex 72.5 75 2
      vertex 69.1628 68.6034 2
      vertex 69.1907 68.4277 2
    endloop
  endfacet
  facet normal 0 0 1
    outer loop
      vertex 72.5 75 2
      vertex 69.1168 68.7753 2
      vertex 69.1628 68.6034 2
    endloop
  endfacet
  facet normal 0 0 1
    outer loop
      vertex 72.5 75 2
      vertex 69.053 68.9415 2
      vertex 69.1168 68.7753 2
    endloop
  endfacet
  facet normal 0 0 1
    outer loop
      vertex 72.5 75 2
      vertex 68.9722 69.1 2
      vertex 69.053 68.9415 2
    endloop
  endfacet
  facet normal 0 0 1
    outer loop
      vertex 72.5 75 2
      vertex 68.8753 69.2492 2
      vertex 68.9722 69.1 2
    endloop
  endfacet
  facet normal 0 0 1
    outer loop
      vertex 72.5 75 2
      vertex 68.7633 69.3875 2
      vertex 68.8753 69.2492 2
    endloop
  endfacet
  facet normal 0 0 1
    outer loop
      vertex 72.5 75 2
      vertex 68.6375 69.5133 2
      vertex 68.7633 69.3875 2
    endloop
  endfacet
  facet normal 0 0 1
    outer loop
      vertex 72.5 75 2
      vertex 68.4992 69.6253 2
      vertex 68.6375 69.5133 2
    endloop
  endfacet
  facet normal 0 0 1
    outer loop
      vertex 72.5 75 2
      vertex 68.35 69.7222 2
      vertex 68.4992 69.6253 2
    endloop
  endfacet
  facet normal 0 0 1
    outer loop
      vertex 72.5 75 2
      vertex 68.1915 69.803 2
      vertex 68.35 69.7222 2
    endloop
  endfacet
  facet normal 0 0 1
    outer loop
      vertex 72.5 75 2
      vertex 68.0253 69.8668 2
      vertex 68.1915 69.803 2
    endloop
  endfacet
  facet normal 0 0 1
    outer loop
      vertex 72.5 75 2
      vertex 67.8534 69.9128 2
      vertex 68.0253 69.8668 2
    endloop
  endfacet
  facet normal 0 0 1
    outer loop
      vertex 72.5 75 2
      vertex 67.6777 69.9407 2
      vertex 67.8534 69.9128 2
    endloop
  endfacet
  facet normal 0 0 1
    outer loop
      vertex 72.5 75 2
      vertex 67.5 69.95 2
      vertex 67.6777 69.9407 2
    endloop
  endfacet
  facet normal -0 0 1
    outer loop
      vertex 62.5 75 2
      vertex 67.5 69.95 2
      vertex 72.5 75 2
    endloop
  endfacet
  facet normal 0 0 1
    outer loop
      vertex 67.5 69.95 2
      vertex 62.5 75 2
      vertex 67.3223 69.9407 2
    endloop
  endfacet
  facet normal 0 0 1
    outer loop
      vertex 67.3223 69.9407 2
      vertex 62.5 75 2
      vertex 67.1465 69.9128 2
    endloop
  endfacet
  facet normal 0 0 1
    outer loop
      vertex 67.1465 69.9128 2
      vertex 62.5 75 2
      vertex 66.9747 69.8668 2
    endloop
  endfacet
  facet normal 0 0 1
    outer loop
      vertex 66.9747 69.8668 2
      vertex 62.5 75 2
      vertex 66.8085 69.803 2
    endloop
  endfacet
  facet normal 0 0 1
    outer loop
      vertex 66.8085 69.803 2
      vertex 62.5 75 2
      vertex 66.65 69.7222 2
    endloop
  endfacet
  facet normal 0 0 1
    outer loop
      vertex 66.65 69.7222 2
      vertex 62.5 75 2
      vertex 66.5008 69.6253 2
    endloop
  endfacet
  facet normal 0 0 1
    outer loop
      vertex 65.8093 68.4277 2
      vertex 62.5 75 2
      vertex 65.8 68.25 2
    endloop
  endfacet
  facet normal 0 0 1
    outer loop
      vertex 65.8372 68.6034 2
      vertex 62.5 75 2
      vertex 65.8093 68.4277 2
    endloop
  endfacet
  facet normal 0 0 1
    outer loop
      vertex 65.8832 68.7753 2
      vertex 62.5 75 2
      vertex 65.8372 68.6034 2
    endloop
  endfacet
  facet normal 0 0 1
    outer loop
      vertex 65.947 68.9415 2
      vertex 62.5 75 2
      vertex 65.8832 68.7753 2
    endloop
  endfacet
  facet normal 0 0 1
    outer loop
      vertex 66.0278 69.1 2
      vertex 62.5 75 2
      vertex 65.947 68.9415 2
    endloop
  endfacet
  facet normal 0 0 1
    outer loop
      vertex 66.1247 69.2492 2
      vertex 62.5 75 2
      vertex 66.0278 69.1 2
    endloop
  endfacet
  facet normal 0 0 1
    outer loop
      vertex 66.2367 69.3875 2
      vertex 62.5 75 2
      vertex 66.1247 69.2492 2
    endloop
  endfacet
  facet normal 0 0 1
    outer loop
      vertex 66.3625 69.5133 2
      vertex 62.5 75 2
      vertex 66.2367 69.3875 2
    endloop
  endfacet
  facet normal 0 0 1
    outer loop
      vertex 66.5008 69.6253 2
      vertex 62.5 75 2
      vertex 66.3625 69.5133 2
    endloop
  endfacet
  facet normal -0 0 1
    outer loop
      vertex 69.1907 68.0723 2
      vertex 72.5 61.5 2
      vertex 69.2 68.25 2
    endloop
  endfacet
  facet normal -0 0 1
    outer loop
      vertex 69.1628 67.8966 2
      vertex 72.5 61.5 2
      vertex 69.1907 68.0723 2
    endloop
  endfacet
  facet normal -0 0 1
    outer loop
      vertex 69.1168 67.7247 2
      vertex 72.5 61.5 2
      vertex 69.1628 67.8966 2
    endloop
  endfacet
  facet normal -0 0 1
    outer loop
      vertex 69.053 67.5585 2
      vertex 72.5 61.5 2
      vertex 69.1168 67.7247 2
    endloop
  endfacet
  facet normal -0 0 1
    outer loop
      vertex 68.9722 67.4 2
      vertex 72.5 61.5 2
      vertex 69.053 67.5585 2
    endloop
  endfacet
  facet normal -0 0 1
    outer loop
      vertex 68.8753 67.2508 2
      vertex 72.5 61.5 2
      vertex 68.9722 67.4 2
    endloop
  endfacet
  facet normal -0 0 1
    outer loop
      vertex 68.7633 67.1125 2
      vertex 72.5 61.5 2
      vertex 68.8753 67.2508 2
    endloop
  endfacet
  facet normal -0 0 1
    outer loop
      vertex 68.6375 66.9867 2
      vertex 72.5 61.5 2
      vertex 68.7633 67.1125 2
    endloop
  endfacet
  facet normal -0 0 1
    outer loop
      vertex 68.4992 66.8747 2
      vertex 72.5 61.5 2
      vertex 68.6375 66.9867 2
    endloop
  endfacet
  facet normal -0 0 1
    outer loop
      vertex 68.35 66.7778 2
      vertex 72.5 61.5 2
      vertex 68.4992 66.8747 2
    endloop
  endfacet
  facet normal -0 0 1
    outer loop
      vertex 68.1915 66.697 2
      vertex 72.5 61.5 2
      vertex 68.35 66.7778 2
    endloop
  endfacet
  facet normal -0 0 1
    outer loop
      vertex 68.0253 66.6332 2
      vertex 72.5 61.5 2
      vertex 68.1915 66.697 2
    endloop
  endfacet
  facet normal -0 0 1
    outer loop
      vertex 67.8534 66.5872 2
      vertex 72.5 61.5 2
      vertex 68.0253 66.6332 2
    endloop
  endfacet
  facet normal -0 0 1
    outer loop
      vertex 67.6777 66.5593 2
      vertex 72.5 61.5 2
      vertex 67.8534 66.5872 2
    endloop
  endfacet
  facet normal -0 0 1
    outer loop
      vertex 67.5 66.55 2
      vertex 72.5 61.5 2
      vertex 67.6777 66.5593 2
    endloop
  endfacet
  facet normal 0 0 1
    outer loop
      vertex 62.5 61.5 2
      vertex 67.5 66.55 2
      vertex 67.3223 66.5593 2
    endloop
  endfacet
  facet normal 0 0 1
    outer loop
      vertex 62.5 61.5 2
      vertex 67.3223 66.5593 2
      vertex 67.1465 66.5872 2
    endloop
  endfacet
  facet normal 0 0 1
    outer loop
      vertex 62.5 61.5 2
      vertex 67.1465 66.5872 2
      vertex 66.9747 66.6332 2
    endloop
  endfacet
  facet normal 0 0 1
    outer loop
      vertex 62.5 61.5 2
      vertex 66.9747 66.6332 2
      vertex 66.8085 66.697 2
    endloop
  endfacet
  facet normal 0 0 1
    outer loop
      vertex 62.5 61.5 2
      vertex 66.8085 66.697 2
      vertex 66.65 66.7778 2
    endloop
  endfacet
  facet normal 0 0 1
    outer loop
      vertex 62.5 61.5 2
      vertex 66.65 66.7778 2
      vertex 66.5008 66.8747 2
    endloop
  endfacet
  facet normal 0 0 1
    outer loop
      vertex 62.5 61.5 2
      vertex 66.5008 66.8747 2
      vertex 66.3625 66.9867 2
    endloop
  endfacet
  facet normal 0 0 1
    outer loop
      vertex 62.5 61.5 2
      vertex 65.8 68.25 2
      vertex 62.5 75 2
    endloop
  endfacet
  facet normal 0 0 1
    outer loop
      vertex 65.8 68.25 2
      vertex 62.5 61.5 2
      vertex 65.8093 68.0723 2
    endloop
  endfacet
  facet normal 0 0 1
    outer loop
      vertex 65.8093 68.0723 2
      vertex 62.5 61.5 2
      vertex 65.8372 67.8966 2
    endloop
  endfacet
  facet normal 0 0 1
    outer loop
      vertex 65.8372 67.8966 2
      vertex 62.5 61.5 2
      vertex 65.8832 67.7247 2
    endloop
  endfacet
  facet normal 0 0 1
    outer loop
      vertex 67.5 66.55 2
      vertex 62.5 61.5 2
      vertex 72.5 61.5 2
    endloop
  endfacet
  facet normal 0 0 1
    outer loop
      vertex 66.2367 67.1125 2
      vertex 62.5 61.5 2
      vertex 66.3625 66.9867 2
    endloop
  endfacet
  facet normal 0 0 1
    outer loop
      vertex 66.1247 67.2508 2
      vertex 62.5 61.5 2
      vertex 66.2367 67.1125 2
    endloop
  endfacet
  facet normal 0 0 1
    outer loop
      vertex 66.0278 67.4 2
      vertex 62.5 61.5 2
      vertex 66.1247 67.2508 2
    endloop
  endfacet
  facet normal 0 0 1
    outer loop
      vertex 65.947 67.5585 2
      vertex 62.5 61.5 2
      vertex 66.0278 67.4 2
    endloop
  endfacet
  facet normal 0 0 1
    outer loop
      vertex 65.8832 67.7247 2
      vertex 62.5 61.5 2
      vertex 65.947 67.5585 2
    endloop
  endfacet
  facet normal 0 0 1
    outer loop
      vertex 69.1907 18.0723 2
      vertex 72.5 23.5 2
      vertex 69.2 18.25 2
    endloop
  endfacet
  facet normal 0 0 1
    outer loop
      vertex 72.5 23.5 2
      vertex 69.1907 18.4277 2
      vertex 69.2 18.25 2
    endloop
  endfacet
  facet normal 0 0 1
    outer loop
      vertex 72.5 23.5 2
      vertex 69.1628 18.6035 2
      vertex 69.1907 18.4277 2
    endloop
  endfacet
  facet normal 0 0 1
    outer loop
      vertex 72.5 23.5 2
      vertex 69.1168 18.7753 2
      vertex 69.1628 18.6035 2
    endloop
  endfacet
  facet normal 0 0 1
    outer loop
      vertex 72.5 23.5 2
      vertex 69.053 18.9415 2
      vertex 69.1168 18.7753 2
    endloop
  endfacet
  facet normal 0 0 1
    outer loop
      vertex 72.5 23.5 2
      vertex 68.9722 19.1 2
      vertex 69.053 18.9415 2
    endloop
  endfacet
  facet normal 0 0 1
    outer loop
      vertex 72.5 23.5 2
      vertex 68.8753 19.2492 2
      vertex 68.9722 19.1 2
    endloop
  endfacet
  facet normal 0 0 1
    outer loop
      vertex 72.5 23.5 2
      vertex 68.7633 19.3875 2
      vertex 68.8753 19.2492 2
    endloop
  endfacet
  facet normal 0 0 1
    outer loop
      vertex 72.5 23.5 2
      vertex 68.6375 19.5133 2
      vertex 68.7633 19.3875 2
    endloop
  endfacet
  facet normal 0 0 1
    outer loop
      vertex 72.5 23.5 2
      vertex 68.4992 19.6253 2
      vertex 68.6375 19.5133 2
    endloop
  endfacet
  facet normal 0 0 1
    outer loop
      vertex 72.5 23.5 2
      vertex 68.35 19.7222 2
      vertex 68.4992 19.6253 2
    endloop
  endfacet
  facet normal 0 0 1
    outer loop
      vertex 72.5 23.5 2
      vertex 68.1915 19.803 2
      vertex 68.35 19.7222 2
    endloop
  endfacet
  facet normal 0 0 1
    outer loop
      vertex 72.5 23.5 2
      vertex 68.0253 19.8668 2
      vertex 68.1915 19.803 2
    endloop
  endfacet
  facet normal 0 0 1
    outer loop
      vertex 72.5 23.5 2
      vertex 67.8534 19.9129 2
      vertex 68.0253 19.8668 2
    endloop
  endfacet
  facet normal 0 0 1
    outer loop
      vertex 72.5 23.5 2
      vertex 67.6777 19.9407 2
      vertex 67.8534 19.9129 2
    endloop
  endfacet
  facet normal 0 0 1
    outer loop
      vertex 72.5 23.5 2
      vertex 67.5 19.95 2
      vertex 67.6777 19.9407 2
    endloop
  endfacet
  facet normal -0 0 1
    outer loop
      vertex 62.5 23.5 2
      vertex 67.5 19.95 2
      vertex 72.5 23.5 2
    endloop
  endfacet
  facet normal 0 0 1
    outer loop
      vertex 67.5 19.95 2
      vertex 62.5 23.5 2
      vertex 67.3223 19.9407 2
    endloop
  endfacet
  facet normal 0 0 1
    outer loop
      vertex 67.3223 19.9407 2
      vertex 62.5 23.5 2
      vertex 67.1465 19.9129 2
    endloop
  endfacet
  facet normal 0 0 1
    outer loop
      vertex 67.1465 19.9129 2
      vertex 62.5 23.5 2
      vertex 66.9747 19.8668 2
    endloop
  endfacet
  facet normal 0 0 1
    outer loop
      vertex 66.9747 19.8668 2
      vertex 62.5 23.5 2
      vertex 66.8085 19.803 2
    endloop
  endfacet
  facet normal 0 0 1
    outer loop
      vertex 65.8093 18.4277 2
      vertex 62.5 23.5 2
      vertex 65.8 18.25 2
    endloop
  endfacet
  facet normal 0 0 1
    outer loop
      vertex 65.8372 18.6035 2
      vertex 62.5 23.5 2
      vertex 65.8093 18.4277 2
    endloop
  endfacet
  facet normal 0 0 1
    outer loop
      vertex 65.8832 18.7753 2
      vertex 62.5 23.5 2
      vertex 65.8372 18.6035 2
    endloop
  endfacet
  facet normal 0 0 1
    outer loop
      vertex 65.947 18.9415 2
      vertex 62.5 23.5 2
      vertex 65.8832 18.7753 2
    endloop
  endfacet
  facet normal 0 0 1
    outer loop
      vertex 66.0278 19.1 2
      vertex 62.5 23.5 2
      vertex 65.947 18.9415 2
    endloop
  endfacet
  facet normal 0 0 1
    outer loop
      vertex 66.1247 19.2492 2
      vertex 62.5 23.5 2
      vertex 66.0278 19.1 2
    endloop
  endfacet
  facet normal 0 0 1
    outer loop
      vertex 66.2367 19.3875 2
      vertex 62.5 23.5 2
      vertex 66.1247 19.2492 2
    endloop
  endfacet
  facet normal 0 0 1
    outer loop
      vertex 66.3625 19.5133 2
      vertex 62.5 23.5 2
      vertex 66.2367 19.3875 2
    endloop
  endfacet
  facet normal 0 0 1
    outer loop
      vertex 66.5008 19.6253 2
      vertex 62.5 23.5 2
      vertex 66.3625 19.5133 2
    endloop
  endfacet
  facet normal 0 0 1
    outer loop
      vertex 66.65 19.7222 2
      vertex 62.5 23.5 2
      vertex 66.5008 19.6253 2
    endloop
  endfacet
  facet normal 0 0 1
    outer loop
      vertex 66.8085 19.803 2
      vertex 62.5 23.5 2
      vertex 66.65 19.7222 2
    endloop
  endfacet
  facet normal 0 0 1
    outer loop
      vertex 72.5 23.5 2
      vertex 69.1907 18.0723 2
      vertex 72.5 10 2
    endloop
  endfacet
  facet normal -0 0 1
    outer loop
      vertex 69.1628 17.8965 2
      vertex 72.5 10 2
      vertex 69.1907 18.0723 2
    endloop
  endfacet
  facet normal -0 0 1
    outer loop
      vertex 69.1168 17.7247 2
      vertex 72.5 10 2
      vertex 69.1628 17.8965 2
    endloop
  endfacet
  facet normal -0 0 1
    outer loop
      vertex 69.053 17.5585 2
      vertex 72.5 10 2
      vertex 69.1168 17.7247 2
    endloop
  endfacet
  facet normal -0 0 1
    outer loop
      vertex 68.9722 17.4 2
      vertex 72.5 10 2
      vertex 69.053 17.5585 2
    endloop
  endfacet
  facet normal -0 0 1
    outer loop
      vertex 68.8753 17.2508 2
      vertex 72.5 10 2
      vertex 68.9722 17.4 2
    endloop
  endfacet
  facet normal -0 0 1
    outer loop
      vertex 68.7633 17.1125 2
      vertex 72.5 10 2
      vertex 68.8753 17.2508 2
    endloop
  endfacet
  facet normal -0 0 1
    outer loop
      vertex 68.6375 16.9867 2
      vertex 72.5 10 2
      vertex 68.7633 17.1125 2
    endloop
  endfacet
  facet normal -0 0 1
    outer loop
      vertex 68.4992 16.8747 2
      vertex 72.5 10 2
      vertex 68.6375 16.9867 2
    endloop
  endfacet
  facet normal -0 0 1
    outer loop
      vertex 68.35 16.7778 2
      vertex 72.5 10 2
      vertex 68.4992 16.8747 2
    endloop
  endfacet
  facet normal -0 0 1
    outer loop
      vertex 68.1915 16.697 2
      vertex 72.5 10 2
      vertex 68.35 16.7778 2
    endloop
  endfacet
  facet normal -0 0 1
    outer loop
      vertex 68.0253 16.6332 2
      vertex 72.5 10 2
      vertex 68.1915 16.697 2
    endloop
  endfacet
  facet normal -0 0 1
    outer loop
      vertex 67.8534 16.5871 2
      vertex 72.5 10 2
      vertex 68.0253 16.6332 2
    endloop
  endfacet
  facet normal -0 0 1
    outer loop
      vertex 67.6777 16.5593 2
      vertex 72.5 10 2
      vertex 67.8534 16.5871 2
    endloop
  endfacet
  facet normal -0 0 1
    outer loop
      vertex 67.5 16.55 2
      vertex 72.5 10 2
      vertex 67.6777 16.5593 2
    endloop
  endfacet
  facet normal 0 0 1
    outer loop
      vertex 62.5 10 2
      vertex 67.5 16.55 2
      vertex 67.3223 16.5593 2
    endloop
  endfacet
  facet normal 0 0 1
    outer loop
      vertex 62.5 10 2
      vertex 67.3223 16.5593 2
      vertex 67.1465 16.5871 2
    endloop
  endfacet
  facet normal 0 0 1
    outer loop
      vertex 62.5 10 2
      vertex 67.1465 16.5871 2
      vertex 66.9747 16.6332 2
    endloop
  endfacet
  facet normal 0 0 1
    outer loop
      vertex 62.5 10 2
      vertex 66.9747 16.6332 2
      vertex 66.8085 16.697 2
    endloop
  endfacet
  facet normal 0 0 1
    outer loop
      vertex 62.5 10 2
      vertex 66.8085 16.697 2
      vertex 66.65 16.7778 2
    endloop
  endfacet
  facet normal 0 0 1
    outer loop
      vertex 62.5 10 2
      vertex 66.65 16.7778 2
      vertex 66.5008 16.8747 2
    endloop
  endfacet
  facet normal 0 0 1
    outer loop
      vertex 62.5 10 2
      vertex 66.5008 16.8747 2
      vertex 66.3625 16.9867 2
    endloop
  endfacet
  facet normal 0 0 1
    outer loop
      vertex 62.5 10 2
      vertex 66.3625 16.9867 2
      vertex 66.2367 17.1125 2
    endloop
  endfacet
  facet normal 0 0 1
    outer loop
      vertex 62.5 23.5 2
      vertex 65.8093 18.0723 2
      vertex 65.8 18.25 2
    endloop
  endfacet
  facet normal 0 0 1
    outer loop
      vertex 62.5 23.5 2
      vertex 65.8372 17.8965 2
      vertex 65.8093 18.0723 2
    endloop
  endfacet
  facet normal 0 0 1
    outer loop
      vertex 62.5 10 2
      vertex 65.8372 17.8965 2
      vertex 62.5 23.5 2
    endloop
  endfacet
  facet normal 0 0 1
    outer loop
      vertex 65.8372 17.8965 2
      vertex 62.5 10 2
      vertex 65.8832 17.7247 2
    endloop
  endfacet
  facet normal 0 0 1
    outer loop
      vertex 65.8832 17.7247 2
      vertex 62.5 10 2
      vertex 65.947 17.5585 2
    endloop
  endfacet
  facet normal 0 0 1
    outer loop
      vertex 67.5 16.55 2
      vertex 62.5 10 2
      vertex 72.5 10 2
    endloop
  endfacet
  facet normal 0 0 1
    outer loop
      vertex 66.1247 17.2508 2
      vertex 62.5 10 2
      vertex 66.2367 17.1125 2
    endloop
  endfacet
  facet normal 0 0 1
    outer loop
      vertex 66.0278 17.4 2
      vertex 62.5 10 2
      vertex 66.1247 17.2508 2
    endloop
  endfacet
  facet normal 0 0 1
    outer loop
      vertex 65.947 17.5585 2
      vertex 62.5 10 2
      vertex 66.0278 17.4 2
    endloop
  endfacet
  facet normal 0 -1 0
    outer loop
      vertex 62.5 10 0
      vertex 72.5 10 2
      vertex 62.5 10 2
    endloop
  endfacet
  facet normal 0 -1 -0
    outer loop
      vertex 72.5 10 2
      vertex 62.5 10 0
      vertex 72.5 10 0
    endloop
  endfacet
  facet normal 0 0 -1
    outer loop
      vertex 72.5 10 0
      vertex 69.2 18.25 0
      vertex 72.5 25.5 0
    endloop
  endfacet
  facet normal 0 0 -1
    outer loop
      vertex 72.5 10 0
      vertex 69.1907 18.0723 0
      vertex 69.2 18.25 0
    endloop
  endfacet
  facet normal 0 0 -1
    outer loop
      vertex 72.5 10 0
      vertex 69.1628 17.8965 0
      vertex 69.1907 18.0723 0
    endloop
  endfacet
  facet normal 0 0 -1
    outer loop
      vertex 72.5 10 0
      vertex 69.1168 17.7247 0
      vertex 69.1628 17.8965 0
    endloop
  endfacet
  facet normal 0 0 -1
    outer loop
      vertex 72.5 10 0
      vertex 69.053 17.5585 0
      vertex 69.1168 17.7247 0
    endloop
  endfacet
  facet normal 0 0 -1
    outer loop
      vertex 72.5 10 0
      vertex 68.9722 17.4 0
      vertex 69.053 17.5585 0
    endloop
  endfacet
  facet normal 0 0 -1
    outer loop
      vertex 72.5 10 0
      vertex 68.8753 17.2508 0
      vertex 68.9722 17.4 0
    endloop
  endfacet
  facet normal 0 0 -1
    outer loop
      vertex 72.5 10 0
      vertex 68.7633 17.1125 0
      vertex 68.8753 17.2508 0
    endloop
  endfacet
  facet normal 0 0 -1
    outer loop
      vertex 72.5 10 0
      vertex 68.6375 16.9867 0
      vertex 68.7633 17.1125 0
    endloop
  endfacet
  facet normal 0 0 -1
    outer loop
      vertex 72.5 10 0
      vertex 68.4992 16.8747 0
      vertex 68.6375 16.9867 0
    endloop
  endfacet
  facet normal 0 0 -1
    outer loop
      vertex 72.5 10 0
      vertex 68.35 16.7778 0
      vertex 68.4992 16.8747 0
    endloop
  endfacet
  facet normal 0 0 -1
    outer loop
      vertex 72.5 10 0
      vertex 68.1915 16.697 0
      vertex 68.35 16.7778 0
    endloop
  endfacet
  facet normal 0 0 -1
    outer loop
      vertex 72.5 10 0
      vertex 68.0253 16.6332 0
      vertex 68.1915 16.697 0
    endloop
  endfacet
  facet normal 0 0 -1
    outer loop
      vertex 72.5 10 0
      vertex 67.8534 16.5871 0
      vertex 68.0253 16.6332 0
    endloop
  endfacet
  facet normal 0 0 -1
    outer loop
      vertex 72.5 10 0
      vertex 67.6777 16.5593 0
      vertex 67.8534 16.5871 0
    endloop
  endfacet
  facet normal 0 0 -1
    outer loop
      vertex 72.5 10 0
      vertex 67.5 16.55 0
      vertex 67.6777 16.5593 0
    endloop
  endfacet
  facet normal 0 0 -1
    outer loop
      vertex 62.5 10 0
      vertex 67.5 16.55 0
      vertex 72.5 10 0
    endloop
  endfacet
  facet normal -0 0 -1
    outer loop
      vertex 67.5 16.55 0
      vertex 62.5 10 0
      vertex 67.3223 16.5593 0
    endloop
  endfacet
  facet normal -0 0 -1
    outer loop
      vertex 67.3223 16.5593 0
      vertex 62.5 10 0
      vertex 67.1465 16.5871 0
    endloop
  endfacet
  facet normal -0 0 -1
    outer loop
      vertex 67.1465 16.5871 0
      vertex 62.5 10 0
      vertex 66.9747 16.6332 0
    endloop
  endfacet
  facet normal -0 0 -1
    outer loop
      vertex 66.9747 16.6332 0
      vertex 62.5 10 0
      vertex 66.8085 16.697 0
    endloop
  endfacet
  facet normal -0 0 -1
    outer loop
      vertex 66.8085 16.697 0
      vertex 62.5 10 0
      vertex 66.65 16.7778 0
    endloop
  endfacet
  facet normal -0 0 -1
    outer loop
      vertex 66.65 16.7778 0
      vertex 62.5 10 0
      vertex 66.5008 16.8747 0
    endloop
  endfacet
  facet normal -0 0 -1
    outer loop
      vertex 66.5008 16.8747 0
      vertex 62.5 10 0
      vertex 66.3625 16.9867 0
    endloop
  endfacet
  facet normal 0 0 -1
    outer loop
      vertex 62.5 10 0
      vertex 65.8 18.25 0
      vertex 65.8093 18.0723 0
    endloop
  endfacet
  facet normal 0 0 -1
    outer loop
      vertex 62.5 10 0
      vertex 65.8093 18.0723 0
      vertex 65.8372 17.8965 0
    endloop
  endfacet
  facet normal -0 0 -1
    outer loop
      vertex 64.5 25.5 0
      vertex 62.5 10 0
      vertex 64.5 59.5 0
    endloop
  endfacet
  facet normal -0 0 -1
    outer loop
      vertex 65.8 18.25 0
      vertex 62.5 10 0
      vertex 64.5 25.5 0
    endloop
  endfacet
  facet normal -0 0 -1
    outer loop
      vertex 65.8832 17.7247 0
      vertex 62.5 10 0
      vertex 65.8372 17.8965 0
    endloop
  endfacet
  facet normal -0 0 -1
    outer loop
      vertex 65.947 17.5585 0
      vertex 62.5 10 0
      vertex 65.8832 17.7247 0
    endloop
  endfacet
  facet normal -0 0 -1
    outer loop
      vertex 66.0278 17.4 0
      vertex 62.5 10 0
      vertex 65.947 17.5585 0
    endloop
  endfacet
  facet normal -0 0 -1
    outer loop
      vertex 66.1247 17.2508 0
      vertex 62.5 10 0
      vertex 66.0278 17.4 0
    endloop
  endfacet
  facet normal -0 0 -1
    outer loop
      vertex 66.2367 17.1125 0
      vertex 62.5 10 0
      vertex 66.1247 17.2508 0
    endloop
  endfacet
  facet normal -0 0 -1
    outer loop
      vertex 66.3625 16.9867 0
      vertex 62.5 10 0
      vertex 66.2367 17.1125 0
    endloop
  endfacet
  facet normal 0 0 -1
    outer loop
      vertex 69.1907 18.4277 0
      vertex 72.5 25.5 0
      vertex 69.2 18.25 0
    endloop
  endfacet
  facet normal 0 0 -1
    outer loop
      vertex 69.1628 18.6035 0
      vertex 72.5 25.5 0
      vertex 69.1907 18.4277 0
    endloop
  endfacet
  facet normal 0 0 -1
    outer loop
      vertex 69.1168 18.7753 0
      vertex 72.5 25.5 0
      vertex 69.1628 18.6035 0
    endloop
  endfacet
  facet normal 0 0 -1
    outer loop
      vertex 69.053 18.9415 0
      vertex 72.5 25.5 0
      vertex 69.1168 18.7753 0
    endloop
  endfacet
  facet normal 0 0 -1
    outer loop
      vertex 68.9722 19.1 0
      vertex 72.5 25.5 0
      vertex 69.053 18.9415 0
    endloop
  endfacet
  facet normal 0 0 -1
    outer loop
      vertex 68.8753 19.2492 0
      vertex 72.5 25.5 0
      vertex 68.9722 19.1 0
    endloop
  endfacet
  facet normal 0 0 -1
    outer loop
      vertex 68.7633 19.3875 0
      vertex 72.5 25.5 0
      vertex 68.8753 19.2492 0
    endloop
  endfacet
  facet normal 0 0 -1
    outer loop
      vertex 68.6375 19.5133 0
      vertex 72.5 25.5 0
      vertex 68.7633 19.3875 0
    endloop
  endfacet
  facet normal 0 0 -1
    outer loop
      vertex 68.4992 19.6253 0
      vertex 72.5 25.5 0
      vertex 68.6375 19.5133 0
    endloop
  endfacet
  facet normal 0 0 -1
    outer loop
      vertex 68.35 19.7222 0
      vertex 72.5 25.5 0
      vertex 68.4992 19.6253 0
    endloop
  endfacet
  facet normal 0 0 -1
    outer loop
      vertex 68.1915 19.803 0
      vertex 72.5 25.5 0
      vertex 68.35 19.7222 0
    endloop
  endfacet
  facet normal 0 0 -1
    outer loop
      vertex 68.0253 19.8668 0
      vertex 72.5 25.5 0
      vertex 68.1915 19.803 0
    endloop
  endfacet
  facet normal 0 0 -1
    outer loop
      vertex 67.8534 19.9129 0
      vertex 72.5 25.5 0
      vertex 68.0253 19.8668 0
    endloop
  endfacet
  facet normal 0 0 -1
    outer loop
      vertex 64.5 25.5 0
      vertex 67.8534 19.9129 0
      vertex 67.6777 19.9407 0
    endloop
  endfacet
  facet normal 0 0 -1
    outer loop
      vertex 64.5 25.5 0
      vertex 67.6777 19.9407 0
      vertex 67.5 19.95 0
    endloop
  endfacet
  facet normal 0 0 -1
    outer loop
      vertex 64.5 25.5 0
      vertex 67.5 19.95 0
      vertex 67.3223 19.9407 0
    endloop
  endfacet
  facet normal 0 0 -1
    outer loop
      vertex 64.5 25.5 0
      vertex 67.3223 19.9407 0
      vertex 67.1465 19.9129 0
    endloop
  endfacet
  facet normal 0 0 -1
    outer loop
      vertex 64.5 25.5 0
      vertex 67.1465 19.9129 0
      vertex 66.9747 19.8668 0
    endloop
  endfacet
  facet normal 0 0 -1
    outer loop
      vertex 64.5 25.5 0
      vertex 66.9747 19.8668 0
      vertex 66.8085 19.803 0
    endloop
  endfacet
  facet normal 0 0 -1
    outer loop
      vertex 64.5 25.5 0
      vertex 66.8085 19.803 0
      vertex 66.65 19.7222 0
    endloop
  endfacet
  facet normal 0 0 -1
    outer loop
      vertex 64.5 25.5 0
      vertex 66.65 19.7222 0
      vertex 66.5008 19.6253 0
    endloop
  endfacet
  facet normal 0 0 -1
    outer loop
      vertex 64.5 25.5 0
      vertex 66.5008 19.6253 0
      vertex 66.3625 19.5133 0
    endloop
  endfacet
  facet normal 0 0 -1
    outer loop
      vertex 67.8534 19.9129 0
      vertex 64.5 25.5 0
      vertex 72.5 25.5 0
    endloop
  endfacet
  facet normal 0 0 -1
    outer loop
      vertex 66.2367 19.3875 0
      vertex 64.5 25.5 0
      vertex 66.3625 19.5133 0
    endloop
  endfacet
  facet normal 0 0 -1
    outer loop
      vertex 66.1247 19.2492 0
      vertex 64.5 25.5 0
      vertex 66.2367 19.3875 0
    endloop
  endfacet
  facet normal 0 0 -1
    outer loop
      vertex 66.0278 19.1 0
      vertex 64.5 25.5 0
      vertex 66.1247 19.2492 0
    endloop
  endfacet
  facet normal 0 0 -1
    outer loop
      vertex 65.947 18.9415 0
      vertex 64.5 25.5 0
      vertex 66.0278 19.1 0
    endloop
  endfacet
  facet normal 0 0 -1
    outer loop
      vertex 65.8832 18.7753 0
      vertex 64.5 25.5 0
      vertex 65.947 18.9415 0
    endloop
  endfacet
  facet normal 0 0 -1
    outer loop
      vertex 65.8372 18.6035 0
      vertex 64.5 25.5 0
      vertex 65.8832 18.7753 0
    endloop
  endfacet
  facet normal 0 0 -1
    outer loop
      vertex 65.8093 18.4277 0
      vertex 64.5 25.5 0
      vertex 65.8372 18.6035 0
    endloop
  endfacet
  facet normal 0 0 -1
    outer loop
      vertex 64.5 25.5 0
      vertex 65.8093 18.4277 0
      vertex 65.8 18.25 0
    endloop
  endfacet
  facet normal 0 0 -1
    outer loop
      vertex 69.1907 68.0723 0
      vertex 72.5 75 0
      vertex 72.5 59.5 0
    endloop
  endfacet
  facet normal 0 0 -1
    outer loop
      vertex 72.5 75 0
      vertex 69.1907 68.0723 0
      vertex 69.2 68.25 0
    endloop
  endfacet
  facet normal 0 0 -1
    outer loop
      vertex 72.5 59.5 0
      vertex 69.1628 67.8966 0
      vertex 69.1907 68.0723 0
    endloop
  endfacet
  facet normal 0 0 -1
    outer loop
      vertex 72.5 59.5 0
      vertex 69.1168 67.7247 0
      vertex 69.1628 67.8966 0
    endloop
  endfacet
  facet normal 0 0 -1
    outer loop
      vertex 72.5 59.5 0
      vertex 69.053 67.5585 0
      vertex 69.1168 67.7247 0
    endloop
  endfacet
  facet normal 0 0 -1
    outer loop
      vertex 72.5 59.5 0
      vertex 68.9722 67.4 0
      vertex 69.053 67.5585 0
    endloop
  endfacet
  facet normal 0 0 -1
    outer loop
      vertex 72.5 59.5 0
      vertex 68.8753 67.2508 0
      vertex 68.9722 67.4 0
    endloop
  endfacet
  facet normal 0 0 -1
    outer loop
      vertex 72.5 59.5 0
      vertex 68.7633 67.1125 0
      vertex 68.8753 67.2508 0
    endloop
  endfacet
  facet normal 0 0 -1
    outer loop
      vertex 72.5 59.5 0
      vertex 68.6375 66.9867 0
      vertex 68.7633 67.1125 0
    endloop
  endfacet
  facet normal 0 0 -1
    outer loop
      vertex 72.5 59.5 0
      vertex 68.4992 66.8747 0
      vertex 68.6375 66.9867 0
    endloop
  endfacet
  facet normal 0 0 -1
    outer loop
      vertex 72.5 59.5 0
      vertex 68.35 66.7778 0
      vertex 68.4992 66.8747 0
    endloop
  endfacet
  facet normal 0 0 -1
    outer loop
      vertex 72.5 59.5 0
      vertex 68.1915 66.697 0
      vertex 68.35 66.7778 0
    endloop
  endfacet
  facet normal 0 0 -1
    outer loop
      vertex 72.5 59.5 0
      vertex 68.0253 66.6332 0
      vertex 68.1915 66.697 0
    endloop
  endfacet
  facet normal 0 0 -1
    outer loop
      vertex 72.5 59.5 0
      vertex 67.8534 66.5872 0
      vertex 68.0253 66.6332 0
    endloop
  endfacet
  facet normal 0 0 -1
    outer loop
      vertex 72.5 59.5 0
      vertex 67.6777 66.5593 0
      vertex 67.8534 66.5872 0
    endloop
  endfacet
  facet normal 0 0 -1
    outer loop
      vertex 64.5 59.5 0
      vertex 67.6777 66.5593 0
      vertex 72.5 59.5 0
    endloop
  endfacet
  facet normal 0 0 -1
    outer loop
      vertex 67.6777 66.5593 0
      vertex 64.5 59.5 0
      vertex 67.5 66.55 0
    endloop
  endfacet
  facet normal -0 0 -1
    outer loop
      vertex 67.5 66.55 0
      vertex 64.5 59.5 0
      vertex 67.3223 66.5593 0
    endloop
  endfacet
  facet normal -0 0 -1
    outer loop
      vertex 67.3223 66.5593 0
      vertex 64.5 59.5 0
      vertex 67.1465 66.5872 0
    endloop
  endfacet
  facet normal -0 0 -1
    outer loop
      vertex 67.1465 66.5872 0
      vertex 64.5 59.5 0
      vertex 66.9747 66.6332 0
    endloop
  endfacet
  facet normal -0 0 -1
    outer loop
      vertex 66.9747 66.6332 0
      vertex 64.5 59.5 0
      vertex 66.8085 66.697 0
    endloop
  endfacet
  facet normal -0 0 -1
    outer loop
      vertex 66.8085 66.697 0
      vertex 64.5 59.5 0
      vertex 66.65 66.7778 0
    endloop
  endfacet
  facet normal -0 0 -1
    outer loop
      vertex 66.65 66.7778 0
      vertex 64.5 59.5 0
      vertex 66.5008 66.8747 0
    endloop
  endfacet
  facet normal -0 0 -1
    outer loop
      vertex 66.5008 66.8747 0
      vertex 64.5 59.5 0
      vertex 66.3625 66.9867 0
    endloop
  endfacet
  facet normal 0 0 -1
    outer loop
      vertex 62.5 75 0
      vertex 65.8093 68.0723 0
      vertex 64.5 59.5 0
    endloop
  endfacet
  facet normal -0 0 -1
    outer loop
      vertex 65.8372 67.8966 0
      vertex 64.5 59.5 0
      vertex 65.8093 68.0723 0
    endloop
  endfacet
  facet normal -0 0 -1
    outer loop
      vertex 65.8832 67.7247 0
      vertex 64.5 59.5 0
      vertex 65.8372 67.8966 0
    endloop
  endfacet
  facet normal -0 0 -1
    outer loop
      vertex 65.947 67.5585 0
      vertex 64.5 59.5 0
      vertex 65.8832 67.7247 0
    endloop
  endfacet
  facet normal -0 0 -1
    outer loop
      vertex 66.0278 67.4 0
      vertex 64.5 59.5 0
      vertex 65.947 67.5585 0
    endloop
  endfacet
  facet normal -0 0 -1
    outer loop
      vertex 66.1247 67.2508 0
      vertex 64.5 59.5 0
      vertex 66.0278 67.4 0
    endloop
  endfacet
  facet normal -0 0 -1
    outer loop
      vertex 66.2367 67.1125 0
      vertex 64.5 59.5 0
      vertex 66.1247 67.2508 0
    endloop
  endfacet
  facet normal -0 0 -1
    outer loop
      vertex 66.3625 66.9867 0
      vertex 64.5 59.5 0
      vertex 66.2367 67.1125 0
    endloop
  endfacet
  facet normal 0 0 -1
    outer loop
      vertex 69.1907 68.4277 0
      vertex 72.5 75 0
      vertex 69.2 68.25 0
    endloop
  endfacet
  facet normal 0 0 -1
    outer loop
      vertex 69.1628 68.6034 0
      vertex 72.5 75 0
      vertex 69.1907 68.4277 0
    endloop
  endfacet
  facet normal 0 0 -1
    outer loop
      vertex 69.1168 68.7753 0
      vertex 72.5 75 0
      vertex 69.1628 68.6034 0
    endloop
  endfacet
  facet normal 0 0 -1
    outer loop
      vertex 69.053 68.9415 0
      vertex 72.5 75 0
      vertex 69.1168 68.7753 0
    endloop
  endfacet
  facet normal 0 0 -1
    outer loop
      vertex 68.9722 69.1 0
      vertex 72.5 75 0
      vertex 69.053 68.9415 0
    endloop
  endfacet
  facet normal 0 0 -1
    outer loop
      vertex 68.8753 69.2492 0
      vertex 72.5 75 0
      vertex 68.9722 69.1 0
    endloop
  endfacet
  facet normal 0 0 -1
    outer loop
      vertex 68.7633 69.3875 0
      vertex 72.5 75 0
      vertex 68.8753 69.2492 0
    endloop
  endfacet
  facet normal 0 0 -1
    outer loop
      vertex 68.6375 69.5133 0
      vertex 72.5 75 0
      vertex 68.7633 69.3875 0
    endloop
  endfacet
  facet normal 0 0 -1
    outer loop
      vertex 68.4992 69.6253 0
      vertex 72.5 75 0
      vertex 68.6375 69.5133 0
    endloop
  endfacet
  facet normal 0 0 -1
    outer loop
      vertex 68.35 69.7222 0
      vertex 72.5 75 0
      vertex 68.4992 69.6253 0
    endloop
  endfacet
  facet normal 0 0 -1
    outer loop
      vertex 68.1915 69.803 0
      vertex 72.5 75 0
      vertex 68.35 69.7222 0
    endloop
  endfacet
  facet normal 0 0 -1
    outer loop
      vertex 68.0253 69.8668 0
      vertex 72.5 75 0
      vertex 68.1915 69.803 0
    endloop
  endfacet
  facet normal 0 0 -1
    outer loop
      vertex 67.8534 69.9128 0
      vertex 72.5 75 0
      vertex 68.0253 69.8668 0
    endloop
  endfacet
  facet normal 0 0 -1
    outer loop
      vertex 67.6777 69.9407 0
      vertex 72.5 75 0
      vertex 67.8534 69.9128 0
    endloop
  endfacet
  facet normal 0 0 -1
    outer loop
      vertex 67.5 69.95 0
      vertex 72.5 75 0
      vertex 67.6777 69.9407 0
    endloop
  endfacet
  facet normal 0 0 -1
    outer loop
      vertex 62.5 75 0
      vertex 67.5 69.95 0
      vertex 67.3223 69.9407 0
    endloop
  endfacet
  facet normal 0 0 -1
    outer loop
      vertex 62.5 75 0
      vertex 67.3223 69.9407 0
      vertex 67.1465 69.9128 0
    endloop
  endfacet
  facet normal 0 0 -1
    outer loop
      vertex 62.5 75 0
      vertex 67.1465 69.9128 0
      vertex 66.9747 69.8668 0
    endloop
  endfacet
  facet normal 0 0 -1
    outer loop
      vertex 62.5 75 0
      vertex 66.9747 69.8668 0
      vertex 66.8085 69.803 0
    endloop
  endfacet
  facet normal 0 0 -1
    outer loop
      vertex 62.5 75 0
      vertex 66.8085 69.803 0
      vertex 66.65 69.7222 0
    endloop
  endfacet
  facet normal 0 0 -1
    outer loop
      vertex 62.5 75 0
      vertex 66.65 69.7222 0
      vertex 66.5008 69.6253 0
    endloop
  endfacet
  facet normal 0 0 -1
    outer loop
      vertex 62.5 75 0
      vertex 66.5008 69.6253 0
      vertex 66.3625 69.5133 0
    endloop
  endfacet
  facet normal 0 0 -1
    outer loop
      vertex 65.8093 68.0723 0
      vertex 62.5 75 0
      vertex 65.8 68.25 0
    endloop
  endfacet
  facet normal 0 0 -1
    outer loop
      vertex 67.5 69.95 0
      vertex 62.5 75 0
      vertex 72.5 75 0
    endloop
  endfacet
  facet normal 0 0 -1
    outer loop
      vertex 66.2367 69.3875 0
      vertex 62.5 75 0
      vertex 66.3625 69.5133 0
    endloop
  endfacet
  facet normal 0 0 -1
    outer loop
      vertex 66.1247 69.2492 0
      vertex 62.5 75 0
      vertex 66.2367 69.3875 0
    endloop
  endfacet
  facet normal 0 0 -1
    outer loop
      vertex 66.0278 69.1 0
      vertex 62.5 75 0
      vertex 66.1247 69.2492 0
    endloop
  endfacet
  facet normal 0 0 -1
    outer loop
      vertex 65.947 68.9415 0
      vertex 62.5 75 0
      vertex 66.0278 69.1 0
    endloop
  endfacet
  facet normal 0 0 -1
    outer loop
      vertex 65.8832 68.7753 0
      vertex 62.5 75 0
      vertex 65.947 68.9415 0
    endloop
  endfacet
  facet normal 0 0 -1
    outer loop
      vertex 65.8372 68.6034 0
      vertex 62.5 75 0
      vertex 65.8832 68.7753 0
    endloop
  endfacet
  facet normal 0 0 -1
    outer loop
      vertex 65.8093 68.4277 0
      vertex 62.5 75 0
      vertex 65.8372 68.6034 0
    endloop
  endfacet
  facet normal 0 0 -1
    outer loop
      vertex 65.8 68.25 0
      vertex 62.5 75 0
      vertex 65.8093 68.4277 0
    endloop
  endfacet
  facet normal 0 0 -1
    outer loop
      vertex 62.5 75 0
      vertex 64.5 59.5 0
      vertex 62.5 10 0
    endloop
  endfacet
  facet normal -1 0 0
    outer loop
      vertex 62.5 75 0
      vertex 62.5 61.5 2
      vertex 62.5 75 2
    endloop
  endfacet
  facet normal -1 0 0
    outer loop
      vertex 62.5 61.5 2
      vertex 62.5 23.5 2
      vertex 62.5 61.5 26
    endloop
  endfacet
  facet normal -1 0 0
    outer loop
      vertex 62.5 75 0
      vertex 62.5 23.5 2
      vertex 62.5 61.5 2
    endloop
  endfacet
  facet normal -1 0 0
    outer loop
      vertex 62.5 10 0
      vertex 62.5 23.5 2
      vertex 62.5 75 0
    endloop
  endfacet
  facet normal -1 -0 0
    outer loop
      vertex 62.5 23.5 2
      vertex 62.5 10 0
      vertex 62.5 10 2
    endloop
  endfacet
  facet normal -1 -0 0
    outer loop
      vertex 62.5 61.5 26
      vertex 62.5 23.5 2
      vertex 62.5 23.5 26
    endloop
  endfacet
  facet normal 1 0 0
    outer loop
      vertex 72.5 61.5 26
      vertex 72.5 59.5 24
      vertex 72.5 61.5 2
    endloop
  endfacet
  facet normal 1 0 0
    outer loop
      vertex 72.5 61.5 26
      vertex 72.5 25.5 24
      vertex 72.5 59.5 24
    endloop
  endfacet
  facet normal 1 -0 0
    outer loop
      vertex 72.5 23.5 26
      vertex 72.5 25.5 24
      vertex 72.5 61.5 26
    endloop
  endfacet
  facet normal 1 0 0
    outer loop
      vertex 72.5 23.5 2
      vertex 72.5 25.5 24
      vertex 72.5 23.5 26
    endloop
  endfacet
  facet normal 1 0 0
    outer loop
      vertex 72.5 25.5 24
      vertex 72.5 23.5 2
      vertex 72.5 25.5 0
    endloop
  endfacet
  facet normal 1 0 0
    outer loop
      vertex 72.5 10 0
      vertex 72.5 23.5 2
      vertex 72.5 10 2
    endloop
  endfacet
  facet normal 1 0 0
    outer loop
      vertex 72.5 23.5 2
      vertex 72.5 10 0
      vertex 72.5 25.5 0
    endloop
  endfacet
  facet normal 1 -0 0
    outer loop
      vertex 72.5 61.5 2
      vertex 72.5 75 0
      vertex 72.5 75 2
    endloop
  endfacet
  facet normal 1 0 0
    outer loop
      vertex 72.5 61.5 2
      vertex 72.5 59.5 0
      vertex 72.5 75 0
    endloop
  endfacet
  facet normal 1 0 0
    outer loop
      vertex 72.5 59.5 0
      vertex 72.5 61.5 2
      vertex 72.5 59.5 24
    endloop
  endfacet
  facet normal 0 1 -0
    outer loop
      vertex 72.5 61.5 2
      vertex 62.5 61.5 26
      vertex 72.5 61.5 26
    endloop
  endfacet
  facet normal 0 1 0
    outer loop
      vertex 62.5 61.5 26
      vertex 72.5 61.5 2
      vertex 62.5 61.5 2
    endloop
  endfacet
  facet normal -0 0 1
    outer loop
      vertex 62.5 61.5 26
      vertex 72.5 23.5 26
      vertex 72.5 61.5 26
    endloop
  endfacet
  facet normal 0 0 1
    outer loop
      vertex 72.5 23.5 26
      vertex 62.5 61.5 26
      vertex 62.5 23.5 26
    endloop
  endfacet
  facet normal 0 -1 0
    outer loop
      vertex 62.5 23.5 2
      vertex 72.5 23.5 26
      vertex 62.5 23.5 26
    endloop
  endfacet
  facet normal 0 -1 -0
    outer loop
      vertex 72.5 23.5 26
      vertex 62.5 23.5 2
      vertex 72.5 23.5 2
    endloop
  endfacet
  facet normal 0 -1 0
    outer loop
      vertex 64.5 59.5 0
      vertex 72.5 59.5 24
      vertex 64.5 59.5 24
    endloop
  endfacet
  facet normal 0 -1 -0
    outer loop
      vertex 72.5 59.5 24
      vertex 64.5 59.5 0
      vertex 72.5 59.5 0
    endloop
  endfacet
  facet normal 0 0 -1
    outer loop
      vertex 64.5 25.5 24
      vertex 72.5 59.5 24
      vertex 72.5 25.5 24
    endloop
  endfacet
  facet normal -0 0 -1
    outer loop
      vertex 72.5 59.5 24
      vertex 64.5 25.5 24
      vertex 64.5 59.5 24
    endloop
  endfacet
  facet normal 0 1 -0
    outer loop
      vertex 72.5 25.5 0
      vertex 64.5 25.5 24
      vertex 72.5 25.5 24
    endloop
  endfacet
  facet normal 0 1 0
    outer loop
      vertex 64.5 25.5 24
      vertex 72.5 25.5 0
      vertex 64.5 25.5 0
    endloop
  endfacet
  facet normal 1 -0 0
    outer loop
      vertex 64.5 25.5 24
      vertex 64.5 59.5 0
      vertex 64.5 59.5 24
    endloop
  endfacet
  facet normal 1 0 0
    outer loop
      vertex 64.5 59.5 0
      vertex 64.5 25.5 24
      vertex 64.5 25.5 0
    endloop
  endfacet
  facet normal -0.052309 0.998631 0
    outer loop
      vertex 67.6777 66.5593 0
      vertex 67.5 66.55 2
      vertex 67.6777 66.5593 2
    endloop
  endfacet
  facet normal -0.052309 0.998631 0
    outer loop
      vertex 67.5 66.55 2
      vertex 67.6777 66.5593 0
      vertex 67.5 66.55 0
    endloop
  endfacet
  facet normal 0.052309 -0.998631 0
    outer loop
      vertex 67.3223 69.9407 0
      vertex 67.5 69.95 2
      vertex 67.3223 69.9407 2
    endloop
  endfacet
  facet normal 0.052309 -0.998631 0
    outer loop
      vertex 67.5 69.95 2
      vertex 67.3223 69.9407 0
      vertex 67.5 69.95 0
    endloop
  endfacet
  facet normal -0.998631 -0.052309 0
    outer loop
      vertex 69.2 68.25 0
      vertex 69.1907 68.4277 2
      vertex 69.1907 68.4277 0
    endloop
  endfacet
  facet normal -0.998631 -0.052309 0
    outer loop
      vertex 69.1907 68.4277 2
      vertex 69.2 68.25 0
      vertex 69.2 68.25 2
    endloop
  endfacet
  facet normal 0.998629 0.0523518 0
    outer loop
      vertex 65.8093 68.0723 2
      vertex 65.8 68.25 0
      vertex 65.8 68.25 2
    endloop
  endfacet
  facet normal 0.998629 0.0523518 0
    outer loop
      vertex 65.8 68.25 0
      vertex 65.8093 68.0723 2
      vertex 65.8093 68.0723 0
    endloop
  endfacet
  facet normal -0.707107 0.707107 0
    outer loop
      vertex 68.6375 66.9867 0
      vertex 68.7633 67.1125 2
      vertex 68.7633 67.1125 0
    endloop
  endfacet
  facet normal -0.707107 0.707107 0
    outer loop
      vertex 68.7633 67.1125 2
      vertex 68.6375 66.9867 0
      vertex 68.6375 66.9867 2
    endloop
  endfacet
  facet normal -0.707107 -0.707107 0
    outer loop
      vertex 68.7633 69.3875 0
      vertex 68.6375 69.5133 2
      vertex 68.6375 69.5133 0
    endloop
  endfacet
  facet normal -0.707107 -0.707107 0
    outer loop
      vertex 68.6375 69.5133 2
      vertex 68.7633 69.3875 0
      vertex 68.7633 69.3875 2
    endloop
  endfacet
  facet normal -0.93357 -0.358396 0
    outer loop
      vertex 69.1168 68.7753 0
      vertex 69.053 68.9415 2
      vertex 69.053 68.9415 0
    endloop
  endfacet
  facet normal -0.93357 -0.358396 0
    outer loop
      vertex 69.053 68.9415 2
      vertex 69.1168 68.7753 0
      vertex 69.1168 68.7753 2
    endloop
  endfacet
  facet normal 0.358396 -0.93357 0
    outer loop
      vertex 66.8085 69.803 0
      vertex 66.9747 69.8668 2
      vertex 66.8085 69.803 2
    endloop
  endfacet
  facet normal 0.358396 -0.93357 0
    outer loop
      vertex 66.9747 69.8668 2
      vertex 66.8085 69.803 0
      vertex 66.9747 69.8668 0
    endloop
  endfacet
  facet normal -0.358396 0.93357 0
    outer loop
      vertex 68.1915 66.697 0
      vertex 68.0253 66.6332 2
      vertex 68.1915 66.697 2
    endloop
  endfacet
  facet normal -0.358396 0.93357 0
    outer loop
      vertex 68.0253 66.6332 2
      vertex 68.1915 66.697 0
      vertex 68.0253 66.6332 0
    endloop
  endfacet
  facet normal -0.156454 0.987685 0
    outer loop
      vertex 67.8534 66.5872 0
      vertex 67.6777 66.5593 2
      vertex 67.8534 66.5872 2
    endloop
  endfacet
  facet normal -0.156454 0.987685 0
    outer loop
      vertex 67.6777 66.5593 2
      vertex 67.8534 66.5872 0
      vertex 67.6777 66.5593 0
    endloop
  endfacet
  facet normal -0.93357 0.358396 0
    outer loop
      vertex 69.053 67.5585 0
      vertex 69.1168 67.7247 2
      vertex 69.1168 67.7247 0
    endloop
  endfacet
  facet normal -0.93357 0.358396 0
    outer loop
      vertex 69.1168 67.7247 2
      vertex 69.053 67.5585 0
      vertex 69.053 67.5585 2
    endloop
  endfacet
  facet normal -0.838672 0.544637 0
    outer loop
      vertex 68.8753 67.2508 0
      vertex 68.9722 67.4 2
      vertex 68.9722 67.4 0
    endloop
  endfacet
  facet normal -0.838672 0.544637 0
    outer loop
      vertex 68.9722 67.4 2
      vertex 68.8753 67.2508 0
      vertex 68.8753 67.2508 2
    endloop
  endfacet
  facet normal -0.358396 -0.93357 0
    outer loop
      vertex 68.0253 69.8668 0
      vertex 68.1915 69.803 2
      vertex 68.0253 69.8668 2
    endloop
  endfacet
  facet normal -0.358396 -0.93357 -0
    outer loop
      vertex 68.1915 69.803 2
      vertex 68.0253 69.8668 0
      vertex 68.1915 69.803 0
    endloop
  endfacet
  facet normal -0.987685 -0.156454 0
    outer loop
      vertex 69.1907 68.4277 0
      vertex 69.1628 68.6034 2
      vertex 69.1628 68.6034 0
    endloop
  endfacet
  facet normal -0.987685 -0.156454 0
    outer loop
      vertex 69.1628 68.6034 2
      vertex 69.1907 68.4277 0
      vertex 69.1907 68.4277 2
    endloop
  endfacet
  facet normal 0.358396 0.93357 -0
    outer loop
      vertex 66.9747 66.6332 0
      vertex 66.8085 66.697 2
      vertex 66.9747 66.6332 2
    endloop
  endfacet
  facet normal 0.358396 0.93357 0
    outer loop
      vertex 66.8085 66.697 2
      vertex 66.9747 66.6332 0
      vertex 66.8085 66.697 0
    endloop
  endfacet
  facet normal 0.987685 0.156454 0
    outer loop
      vertex 65.8372 67.8966 2
      vertex 65.8093 68.0723 0
      vertex 65.8093 68.0723 2
    endloop
  endfacet
  facet normal 0.987685 0.156454 0
    outer loop
      vertex 65.8093 68.0723 0
      vertex 65.8372 67.8966 2
      vertex 65.8372 67.8966 0
    endloop
  endfacet
  facet normal 0.156447 -0.987686 0
    outer loop
      vertex 67.1465 69.9128 0
      vertex 67.3223 69.9407 2
      vertex 67.1465 69.9128 2
    endloop
  endfacet
  facet normal 0.156447 -0.987686 0
    outer loop
      vertex 67.3223 69.9407 2
      vertex 67.1465 69.9128 0
      vertex 67.3223 69.9407 0
    endloop
  endfacet
  facet normal -0.258794 0.965933 0
    outer loop
      vertex 68.0253 66.6332 0
      vertex 67.8534 66.5872 2
      vertex 68.0253 66.6332 2
    endloop
  endfacet
  facet normal -0.258794 0.965933 0
    outer loop
      vertex 67.8534 66.5872 2
      vertex 68.0253 66.6332 0
      vertex 67.8534 66.5872 0
    endloop
  endfacet
  facet normal -0.544637 0.838672 0
    outer loop
      vertex 68.4992 66.8747 0
      vertex 68.35 66.7778 2
      vertex 68.4992 66.8747 2
    endloop
  endfacet
  facet normal -0.544637 0.838672 0
    outer loop
      vertex 68.35 66.7778 2
      vertex 68.4992 66.8747 0
      vertex 68.35 66.7778 0
    endloop
  endfacet
  facet normal -0.629338 0.777132 0
    outer loop
      vertex 68.6375 66.9867 0
      vertex 68.4992 66.8747 2
      vertex 68.6375 66.9867 2
    endloop
  endfacet
  facet normal -0.629338 0.777132 0
    outer loop
      vertex 68.4992 66.8747 2
      vertex 68.6375 66.9867 0
      vertex 68.4992 66.8747 0
    endloop
  endfacet
  facet normal -0.453975 0.891014 0
    outer loop
      vertex 68.35 66.7778 0
      vertex 68.1915 66.697 2
      vertex 68.35 66.7778 2
    endloop
  endfacet
  facet normal -0.453975 0.891014 0
    outer loop
      vertex 68.1915 66.697 2
      vertex 68.35 66.7778 0
      vertex 68.1915 66.697 0
    endloop
  endfacet
  facet normal -0.987685 0.156454 0
    outer loop
      vertex 69.1628 67.8966 0
      vertex 69.1907 68.0723 2
      vertex 69.1907 68.0723 0
    endloop
  endfacet
  facet normal -0.987685 0.156454 0
    outer loop
      vertex 69.1907 68.0723 2
      vertex 69.1628 67.8966 0
      vertex 69.1628 67.8966 2
    endloop
  endfacet
  facet normal -0.965933 0.258794 0
    outer loop
      vertex 69.1168 67.7247 0
      vertex 69.1628 67.8966 2
      vertex 69.1628 67.8966 0
    endloop
  endfacet
  facet normal -0.965933 0.258794 0
    outer loop
      vertex 69.1628 67.8966 2
      vertex 69.1168 67.7247 0
      vertex 69.1168 67.7247 2
    endloop
  endfacet
  facet normal -0.998631 0.052309 0
    outer loop
      vertex 69.1907 68.0723 0
      vertex 69.2 68.25 2
      vertex 69.2 68.25 0
    endloop
  endfacet
  facet normal -0.998631 0.052309 0
    outer loop
      vertex 69.2 68.25 2
      vertex 69.1907 68.0723 0
      vertex 69.1907 68.0723 2
    endloop
  endfacet
  facet normal -0.891014 0.453975 0
    outer loop
      vertex 68.9722 67.4 0
      vertex 69.053 67.5585 2
      vertex 69.053 67.5585 0
    endloop
  endfacet
  facet normal -0.891014 0.453975 0
    outer loop
      vertex 69.053 67.5585 2
      vertex 68.9722 67.4 0
      vertex 68.9722 67.4 2
    endloop
  endfacet
  facet normal -0.777132 0.629338 0
    outer loop
      vertex 68.7633 67.1125 0
      vertex 68.8753 67.2508 2
      vertex 68.8753 67.2508 0
    endloop
  endfacet
  facet normal -0.777132 0.629338 0
    outer loop
      vertex 68.8753 67.2508 2
      vertex 68.7633 67.1125 0
      vertex 68.7633 67.1125 2
    endloop
  endfacet
  facet normal -0.156454 -0.987685 0
    outer loop
      vertex 67.6777 69.9407 0
      vertex 67.8534 69.9128 2
      vertex 67.6777 69.9407 2
    endloop
  endfacet
  facet normal -0.156454 -0.987685 -0
    outer loop
      vertex 67.8534 69.9128 2
      vertex 67.6777 69.9407 0
      vertex 67.8534 69.9128 0
    endloop
  endfacet
  facet normal -0.544637 -0.838672 0
    outer loop
      vertex 68.35 69.7222 0
      vertex 68.4992 69.6253 2
      vertex 68.35 69.7222 2
    endloop
  endfacet
  facet normal -0.544637 -0.838672 -0
    outer loop
      vertex 68.4992 69.6253 2
      vertex 68.35 69.7222 0
      vertex 68.4992 69.6253 0
    endloop
  endfacet
  facet normal -0.629338 -0.777132 0
    outer loop
      vertex 68.4992 69.6253 0
      vertex 68.6375 69.5133 2
      vertex 68.4992 69.6253 2
    endloop
  endfacet
  facet normal -0.629338 -0.777132 -0
    outer loop
      vertex 68.6375 69.5133 2
      vertex 68.4992 69.6253 0
      vertex 68.6375 69.5133 0
    endloop
  endfacet
  facet normal -0.453975 -0.891014 0
    outer loop
      vertex 68.1915 69.803 0
      vertex 68.35 69.7222 2
      vertex 68.1915 69.803 2
    endloop
  endfacet
  facet normal -0.453975 -0.891014 -0
    outer loop
      vertex 68.35 69.7222 2
      vertex 68.1915 69.803 0
      vertex 68.35 69.7222 0
    endloop
  endfacet
  facet normal -0.258794 -0.965933 0
    outer loop
      vertex 67.8534 69.9128 0
      vertex 68.0253 69.8668 2
      vertex 67.8534 69.9128 2
    endloop
  endfacet
  facet normal -0.258794 -0.965933 -0
    outer loop
      vertex 68.0253 69.8668 2
      vertex 67.8534 69.9128 0
      vertex 68.0253 69.8668 0
    endloop
  endfacet
  facet normal -0.052309 -0.998631 0
    outer loop
      vertex 67.5 69.95 0
      vertex 67.6777 69.9407 2
      vertex 67.5 69.95 2
    endloop
  endfacet
  facet normal -0.052309 -0.998631 -0
    outer loop
      vertex 67.6777 69.9407 2
      vertex 67.5 69.95 0
      vertex 67.6777 69.9407 0
    endloop
  endfacet
  facet normal -0.838672 -0.544637 0
    outer loop
      vertex 68.9722 69.1 0
      vertex 68.8753 69.2492 2
      vertex 68.8753 69.2492 0
    endloop
  endfacet
  facet normal -0.838672 -0.544637 0
    outer loop
      vertex 68.8753 69.2492 2
      vertex 68.9722 69.1 0
      vertex 68.9722 69.1 2
    endloop
  endfacet
  facet normal -0.891014 -0.453975 0
    outer loop
      vertex 69.053 68.9415 0
      vertex 68.9722 69.1 2
      vertex 68.9722 69.1 0
    endloop
  endfacet
  facet normal -0.891014 -0.453975 0
    outer loop
      vertex 68.9722 69.1 2
      vertex 69.053 68.9415 0
      vertex 69.053 68.9415 2
    endloop
  endfacet
  facet normal -0.777132 -0.629338 0
    outer loop
      vertex 68.8753 69.2492 0
      vertex 68.7633 69.3875 2
      vertex 68.7633 69.3875 0
    endloop
  endfacet
  facet normal -0.777132 -0.629338 0
    outer loop
      vertex 68.7633 69.3875 2
      vertex 68.8753 69.2492 0
      vertex 68.8753 69.2492 2
    endloop
  endfacet
  facet normal -0.965933 -0.258794 0
    outer loop
      vertex 69.1628 68.6034 0
      vertex 69.1168 68.7753 2
      vertex 69.1168 68.7753 0
    endloop
  endfacet
  facet normal -0.965933 -0.258794 0
    outer loop
      vertex 69.1168 68.7753 2
      vertex 69.1628 68.6034 0
      vertex 69.1628 68.6034 2
    endloop
  endfacet
  facet normal 0.965933 0.258794 0
    outer loop
      vertex 65.8832 67.7247 2
      vertex 65.8372 67.8966 0
      vertex 65.8372 67.8966 2
    endloop
  endfacet
  facet normal 0.965933 0.258794 0
    outer loop
      vertex 65.8372 67.8966 0
      vertex 65.8832 67.7247 2
      vertex 65.8832 67.7247 0
    endloop
  endfacet
  facet normal 0.777132 0.629338 0
    outer loop
      vertex 66.2367 67.1125 2
      vertex 66.1247 67.2508 0
      vertex 66.1247 67.2508 2
    endloop
  endfacet
  facet normal 0.777132 0.629338 0
    outer loop
      vertex 66.1247 67.2508 0
      vertex 66.2367 67.1125 2
      vertex 66.2367 67.1125 0
    endloop
  endfacet
  facet normal 0.890997 0.454009 0
    outer loop
      vertex 66.0278 67.4 2
      vertex 65.947 67.5585 0
      vertex 65.947 67.5585 2
    endloop
  endfacet
  facet normal 0.890997 0.454009 0
    outer loop
      vertex 65.947 67.5585 0
      vertex 66.0278 67.4 2
      vertex 66.0278 67.4 0
    endloop
  endfacet
  facet normal 0.629338 0.777132 -0
    outer loop
      vertex 66.5008 66.8747 0
      vertex 66.3625 66.9867 2
      vertex 66.5008 66.8747 2
    endloop
  endfacet
  facet normal 0.629338 0.777132 0
    outer loop
      vertex 66.3625 66.9867 2
      vertex 66.5008 66.8747 0
      vertex 66.3625 66.9867 0
    endloop
  endfacet
  facet normal 0.453975 0.891014 -0
    outer loop
      vertex 66.8085 66.697 0
      vertex 66.65 66.7778 2
      vertex 66.8085 66.697 2
    endloop
  endfacet
  facet normal 0.453975 0.891014 0
    outer loop
      vertex 66.65 66.7778 2
      vertex 66.8085 66.697 0
      vertex 66.65 66.7778 0
    endloop
  endfacet
  facet normal 0.777132 -0.629338 0
    outer loop
      vertex 66.1247 69.2492 2
      vertex 66.2367 69.3875 0
      vertex 66.2367 69.3875 2
    endloop
  endfacet
  facet normal 0.777132 -0.629338 0
    outer loop
      vertex 66.2367 69.3875 0
      vertex 66.1247 69.2492 2
      vertex 66.1247 69.2492 0
    endloop
  endfacet
  facet normal 0.890997 -0.454009 0
    outer loop
      vertex 65.947 68.9415 2
      vertex 66.0278 69.1 0
      vertex 66.0278 69.1 2
    endloop
  endfacet
  facet normal 0.890997 -0.454009 0
    outer loop
      vertex 66.0278 69.1 0
      vertex 65.947 68.9415 2
      vertex 65.947 68.9415 0
    endloop
  endfacet
  facet normal 0.965933 -0.258794 0
    outer loop
      vertex 65.8372 68.6034 2
      vertex 65.8832 68.7753 0
      vertex 65.8832 68.7753 2
    endloop
  endfacet
  facet normal 0.965933 -0.258794 0
    outer loop
      vertex 65.8832 68.7753 0
      vertex 65.8372 68.6034 2
      vertex 65.8372 68.6034 0
    endloop
  endfacet
  facet normal 0.998629 -0.0523518 0
    outer loop
      vertex 65.8 68.25 2
      vertex 65.8093 68.4277 0
      vertex 65.8093 68.4277 2
    endloop
  endfacet
  facet normal 0.998629 -0.0523518 0
    outer loop
      vertex 65.8093 68.4277 0
      vertex 65.8 68.25 2
      vertex 65.8 68.25 0
    endloop
  endfacet
  facet normal 0.453975 -0.891014 0
    outer loop
      vertex 66.65 69.7222 0
      vertex 66.8085 69.803 2
      vertex 66.65 69.7222 2
    endloop
  endfacet
  facet normal 0.453975 -0.891014 0
    outer loop
      vertex 66.8085 69.803 2
      vertex 66.65 69.7222 0
      vertex 66.8085 69.803 0
    endloop
  endfacet
  facet normal 0.629338 -0.777132 0
    outer loop
      vertex 66.3625 69.5133 0
      vertex 66.5008 69.6253 2
      vertex 66.3625 69.5133 2
    endloop
  endfacet
  facet normal 0.629338 -0.777132 0
    outer loop
      vertex 66.5008 69.6253 2
      vertex 66.3625 69.5133 0
      vertex 66.5008 69.6253 0
    endloop
  endfacet
  facet normal 0.258805 -0.96593 0
    outer loop
      vertex 66.9747 69.8668 0
      vertex 67.1465 69.9128 2
      vertex 66.9747 69.8668 2
    endloop
  endfacet
  facet normal 0.258805 -0.96593 0
    outer loop
      vertex 67.1465 69.9128 2
      vertex 66.9747 69.8668 0
      vertex 67.1465 69.9128 0
    endloop
  endfacet
  facet normal 0.933584 0.358358 0
    outer loop
      vertex 65.947 67.5585 2
      vertex 65.8832 67.7247 0
      vertex 65.8832 67.7247 2
    endloop
  endfacet
  facet normal 0.933584 0.358358 0
    outer loop
      vertex 65.8832 67.7247 0
      vertex 65.947 67.5585 2
      vertex 65.947 67.5585 0
    endloop
  endfacet
  facet normal 0.707107 0.707107 0
    outer loop
      vertex 66.3625 66.9867 2
      vertex 66.2367 67.1125 0
      vertex 66.2367 67.1125 2
    endloop
  endfacet
  facet normal 0.707107 0.707107 0
    outer loop
      vertex 66.2367 67.1125 0
      vertex 66.3625 66.9867 2
      vertex 66.3625 66.9867 0
    endloop
  endfacet
  facet normal 0.838672 0.544637 0
    outer loop
      vertex 66.1247 67.2508 2
      vertex 66.0278 67.4 0
      vertex 66.0278 67.4 2
    endloop
  endfacet
  facet normal 0.838672 0.544637 0
    outer loop
      vertex 66.0278 67.4 0
      vertex 66.1247 67.2508 2
      vertex 66.1247 67.2508 0
    endloop
  endfacet
  facet normal 0.544637 0.838672 -0
    outer loop
      vertex 66.65 66.7778 0
      vertex 66.5008 66.8747 2
      vertex 66.65 66.7778 2
    endloop
  endfacet
  facet normal 0.544637 0.838672 0
    outer loop
      vertex 66.5008 66.8747 2
      vertex 66.65 66.7778 0
      vertex 66.5008 66.8747 0
    endloop
  endfacet
  facet normal 0.156447 0.987686 -0
    outer loop
      vertex 67.3223 66.5593 0
      vertex 67.1465 66.5872 2
      vertex 67.3223 66.5593 2
    endloop
  endfacet
  facet normal 0.156447 0.987686 0
    outer loop
      vertex 67.1465 66.5872 2
      vertex 67.3223 66.5593 0
      vertex 67.1465 66.5872 0
    endloop
  endfacet
  facet normal 0.258805 0.96593 -0
    outer loop
      vertex 67.1465 66.5872 0
      vertex 66.9747 66.6332 2
      vertex 67.1465 66.5872 2
    endloop
  endfacet
  facet normal 0.258805 0.96593 0
    outer loop
      vertex 66.9747 66.6332 2
      vertex 67.1465 66.5872 0
      vertex 66.9747 66.6332 0
    endloop
  endfacet
  facet normal 0.052309 0.998631 -0
    outer loop
      vertex 67.5 66.55 0
      vertex 67.3223 66.5593 2
      vertex 67.5 66.55 2
    endloop
  endfacet
  facet normal 0.052309 0.998631 0
    outer loop
      vertex 67.3223 66.5593 2
      vertex 67.5 66.55 0
      vertex 67.3223 66.5593 0
    endloop
  endfacet
  facet normal 0.838672 -0.544637 0
    outer loop
      vertex 66.0278 69.1 2
      vertex 66.1247 69.2492 0
      vertex 66.1247 69.2492 2
    endloop
  endfacet
  facet normal 0.838672 -0.544637 0
    outer loop
      vertex 66.1247 69.2492 0
      vertex 66.0278 69.1 2
      vertex 66.0278 69.1 0
    endloop
  endfacet
  facet normal 0.933584 -0.358358 0
    outer loop
      vertex 65.8832 68.7753 2
      vertex 65.947 68.9415 0
      vertex 65.947 68.9415 2
    endloop
  endfacet
  facet normal 0.933584 -0.358358 0
    outer loop
      vertex 65.947 68.9415 0
      vertex 65.8832 68.7753 2
      vertex 65.8832 68.7753 0
    endloop
  endfacet
  facet normal 0.987685 -0.156454 0
    outer loop
      vertex 65.8093 68.4277 2
      vertex 65.8372 68.6034 0
      vertex 65.8372 68.6034 2
    endloop
  endfacet
  facet normal 0.987685 -0.156454 0
    outer loop
      vertex 65.8372 68.6034 0
      vertex 65.8093 68.4277 2
      vertex 65.8093 68.4277 0
    endloop
  endfacet
  facet normal 0.544637 -0.838672 0
    outer loop
      vertex 66.5008 69.6253 0
      vertex 66.65 69.7222 2
      vertex 66.5008 69.6253 2
    endloop
  endfacet
  facet normal 0.544637 -0.838672 0
    outer loop
      vertex 66.65 69.7222 2
      vertex 66.5008 69.6253 0
      vertex 66.65 69.7222 0
    endloop
  endfacet
  facet normal 0.707107 -0.707107 0
    outer loop
      vertex 66.2367 69.3875 2
      vertex 66.3625 69.5133 0
      vertex 66.3625 69.5133 2
    endloop
  endfacet
  facet normal 0.707107 -0.707107 0
    outer loop
      vertex 66.3625 69.5133 0
      vertex 66.2367 69.3875 2
      vertex 66.2367 69.3875 0
    endloop
  endfacet
  facet normal -0.0523411 0.998629 0
    outer loop
      vertex 67.6777 16.5593 0
      vertex 67.5 16.55 2
      vertex 67.6777 16.5593 2
    endloop
  endfacet
  facet normal -0.0523411 0.998629 0
    outer loop
      vertex 67.5 16.55 2
      vertex 67.6777 16.5593 0
      vertex 67.5 16.55 0
    endloop
  endfacet
  facet normal 0.0523411 -0.998629 0
    outer loop
      vertex 67.3223 19.9407 0
      vertex 67.5 19.95 2
      vertex 67.3223 19.9407 2
    endloop
  endfacet
  facet normal 0.0523411 -0.998629 0
    outer loop
      vertex 67.5 19.95 2
      vertex 67.3223 19.9407 0
      vertex 67.5 19.95 0
    endloop
  endfacet
  facet normal -0.998631 -0.0523085 0
    outer loop
      vertex 69.2 18.25 0
      vertex 69.1907 18.4277 2
      vertex 69.1907 18.4277 0
    endloop
  endfacet
  facet normal -0.998631 -0.0523085 0
    outer loop
      vertex 69.1907 18.4277 2
      vertex 69.2 18.25 0
      vertex 69.2 18.25 2
    endloop
  endfacet
  facet normal -0.707107 0.707107 0
    outer loop
      vertex 68.6375 16.9867 0
      vertex 68.7633 17.1125 2
      vertex 68.7633 17.1125 0
    endloop
  endfacet
  facet normal -0.707107 0.707107 0
    outer loop
      vertex 68.7633 17.1125 2
      vertex 68.6375 16.9867 0
      vertex 68.6375 16.9867 2
    endloop
  endfacet
  facet normal -0.707107 -0.707107 0
    outer loop
      vertex 68.7633 19.3875 0
      vertex 68.6375 19.5133 2
      vertex 68.6375 19.5133 0
    endloop
  endfacet
  facet normal -0.707107 -0.707107 0
    outer loop
      vertex 68.6375 19.5133 2
      vertex 68.7633 19.3875 0
      vertex 68.7633 19.3875 2
    endloop
  endfacet
  facet normal -0.93357 -0.358396 0
    outer loop
      vertex 69.1168 18.7753 0
      vertex 69.053 18.9415 2
      vertex 69.053 18.9415 0
    endloop
  endfacet
  facet normal -0.93357 -0.358396 0
    outer loop
      vertex 69.053 18.9415 2
      vertex 69.1168 18.7753 0
      vertex 69.1168 18.7753 2
    endloop
  endfacet
  facet normal 0.258825 -0.965924 0
    outer loop
      vertex 66.9747 19.8668 0
      vertex 67.1465 19.9129 2
      vertex 66.9747 19.8668 2
    endloop
  endfacet
  facet normal 0.258825 -0.965924 0
    outer loop
      vertex 67.1465 19.9129 2
      vertex 66.9747 19.8668 0
      vertex 67.1465 19.9129 0
    endloop
  endfacet
  facet normal -0.358368 0.933581 0
    outer loop
      vertex 68.1915 16.697 0
      vertex 68.0253 16.6332 2
      vertex 68.1915 16.697 2
    endloop
  endfacet
  facet normal -0.358368 0.933581 0
    outer loop
      vertex 68.0253 16.6332 2
      vertex 68.1915 16.697 0
      vertex 68.0253 16.6332 0
    endloop
  endfacet
  facet normal -0.156433 0.987689 0
    outer loop
      vertex 67.8534 16.5871 0
      vertex 67.6777 16.5593 2
      vertex 67.8534 16.5871 2
    endloop
  endfacet
  facet normal -0.156433 0.987689 0
    outer loop
      vertex 67.6777 16.5593 2
      vertex 67.8534 16.5871 0
      vertex 67.6777 16.5593 0
    endloop
  endfacet
  facet normal -0.93357 0.358396 0
    outer loop
      vertex 69.053 17.5585 0
      vertex 69.1168 17.7247 2
      vertex 69.1168 17.7247 0
    endloop
  endfacet
  facet normal -0.93357 0.358396 0
    outer loop
      vertex 69.1168 17.7247 2
      vertex 69.053 17.5585 0
      vertex 69.053 17.5585 2
    endloop
  endfacet
  facet normal -0.454001 -0.891001 0
    outer loop
      vertex 68.1915 19.803 0
      vertex 68.35 19.7222 2
      vertex 68.1915 19.803 2
    endloop
  endfacet
  facet normal -0.454001 -0.891001 -0
    outer loop
      vertex 68.35 19.7222 2
      vertex 68.1915 19.803 0
      vertex 68.35 19.7222 0
    endloop
  endfacet
  facet normal -0.54463 -0.838677 0
    outer loop
      vertex 68.35 19.7222 0
      vertex 68.4992 19.6253 2
      vertex 68.35 19.7222 2
    endloop
  endfacet
  facet normal -0.54463 -0.838677 -0
    outer loop
      vertex 68.4992 19.6253 2
      vertex 68.35 19.7222 0
      vertex 68.4992 19.6253 0
    endloop
  endfacet
  facet normal -0.987686 -0.156452 0
    outer loop
      vertex 69.1907 18.4277 0
      vertex 69.1628 18.6035 2
      vertex 69.1628 18.6035 0
    endloop
  endfacet
  facet normal -0.987686 -0.156452 0
    outer loop
      vertex 69.1628 18.6035 2
      vertex 69.1907 18.4277 0
      vertex 69.1907 18.4277 2
    endloop
  endfacet
  facet normal 0.454001 0.891001 -0
    outer loop
      vertex 66.8085 16.697 0
      vertex 66.65 16.7778 2
      vertex 66.8085 16.697 2
    endloop
  endfacet
  facet normal 0.454001 0.891001 0
    outer loop
      vertex 66.65 16.7778 2
      vertex 66.8085 16.697 0
      vertex 66.65 16.7778 0
    endloop
  endfacet
  facet normal 0.965931 0.258799 0
    outer loop
      vertex 65.8832 17.7247 2
      vertex 65.8372 17.8965 0
      vertex 65.8372 17.8965 2
    endloop
  endfacet
  facet normal 0.965931 0.258799 0
    outer loop
      vertex 65.8372 17.8965 0
      vertex 65.8832 17.7247 2
      vertex 65.8832 17.7247 0
    endloop
  endfacet
  facet normal 0.987686 0.156452 0
    outer loop
      vertex 65.8372 17.8965 2
      vertex 65.8093 18.0723 0
      vertex 65.8093 18.0723 2
    endloop
  endfacet
  facet normal 0.987686 0.156452 0
    outer loop
      vertex 65.8093 18.0723 0
      vertex 65.8372 17.8965 2
      vertex 65.8372 17.8965 0
    endloop
  endfacet
  facet normal 0.707107 0.707107 0
    outer loop
      vertex 66.3625 16.9867 2
      vertex 66.2367 17.1125 0
      vertex 66.2367 17.1125 2
    endloop
  endfacet
  facet normal 0.707107 0.707107 0
    outer loop
      vertex 66.2367 17.1125 0
      vertex 66.3625 16.9867 2
      vertex 66.3625 16.9867 0
    endloop
  endfacet
  facet normal 0.258825 0.965924 -0
    outer loop
      vertex 67.1465 16.5871 0
      vertex 66.9747 16.6332 2
      vertex 67.1465 16.5871 2
    endloop
  endfacet
  facet normal 0.258825 0.965924 0
    outer loop
      vertex 66.9747 16.6332 2
      vertex 67.1465 16.5871 0
      vertex 66.9747 16.6332 0
    endloop
  endfacet
  facet normal 0.965931 -0.258799 0
    outer loop
      vertex 65.8372 18.6035 2
      vertex 65.8832 18.7753 0
      vertex 65.8832 18.7753 2
    endloop
  endfacet
  facet normal 0.965931 -0.258799 0
    outer loop
      vertex 65.8832 18.7753 0
      vertex 65.8372 18.6035 2
      vertex 65.8372 18.6035 0
    endloop
  endfacet
  facet normal 0.707107 -0.707107 0
    outer loop
      vertex 66.2367 19.3875 2
      vertex 66.3625 19.5133 0
      vertex 66.3625 19.5133 2
    endloop
  endfacet
  facet normal 0.707107 -0.707107 0
    outer loop
      vertex 66.3625 19.5133 0
      vertex 66.2367 19.3875 2
      vertex 66.2367 19.3875 0
    endloop
  endfacet
  facet normal 0.629331 -0.777137 0
    outer loop
      vertex 66.3625 19.5133 0
      vertex 66.5008 19.6253 2
      vertex 66.3625 19.5133 2
    endloop
  endfacet
  facet normal 0.629331 -0.777137 0
    outer loop
      vertex 66.5008 19.6253 2
      vertex 66.3625 19.5133 0
      vertex 66.5008 19.6253 0
    endloop
  endfacet
  facet normal 0.156426 -0.98769 0
    outer loop
      vertex 67.1465 19.9129 0
      vertex 67.3223 19.9407 2
      vertex 67.1465 19.9129 2
    endloop
  endfacet
  facet normal 0.156426 -0.98769 0
    outer loop
      vertex 67.3223 19.9407 2
      vertex 67.1465 19.9129 0
      vertex 67.3223 19.9407 0
    endloop
  endfacet
  facet normal -0.258814 0.965927 0
    outer loop
      vertex 68.0253 16.6332 0
      vertex 67.8534 16.5871 2
      vertex 68.0253 16.6332 2
    endloop
  endfacet
  facet normal -0.258814 0.965927 0
    outer loop
      vertex 67.8534 16.5871 2
      vertex 68.0253 16.6332 0
      vertex 67.8534 16.5871 0
    endloop
  endfacet
  facet normal -0.54463 0.838677 0
    outer loop
      vertex 68.4992 16.8747 0
      vertex 68.35 16.7778 2
      vertex 68.4992 16.8747 2
    endloop
  endfacet
  facet normal -0.54463 0.838677 0
    outer loop
      vertex 68.35 16.7778 2
      vertex 68.4992 16.8747 0
      vertex 68.35 16.7778 0
    endloop
  endfacet
  facet normal -0.629331 0.777137 0
    outer loop
      vertex 68.6375 16.9867 0
      vertex 68.4992 16.8747 2
      vertex 68.6375 16.9867 2
    endloop
  endfacet
  facet normal -0.629331 0.777137 0
    outer loop
      vertex 68.4992 16.8747 2
      vertex 68.6375 16.9867 0
      vertex 68.4992 16.8747 0
    endloop
  endfacet
  facet normal -0.454001 0.891001 0
    outer loop
      vertex 68.35 16.7778 0
      vertex 68.1915 16.697 2
      vertex 68.35 16.7778 2
    endloop
  endfacet
  facet normal -0.454001 0.891001 0
    outer loop
      vertex 68.1915 16.697 2
      vertex 68.35 16.7778 0
      vertex 68.1915 16.697 0
    endloop
  endfacet
  facet normal -0.987686 0.156452 0
    outer loop
      vertex 69.1628 17.8965 0
      vertex 69.1907 18.0723 2
      vertex 69.1907 18.0723 0
    endloop
  endfacet
  facet normal -0.987686 0.156452 0
    outer loop
      vertex 69.1907 18.0723 2
      vertex 69.1628 17.8965 0
      vertex 69.1628 17.8965 2
    endloop
  endfacet
  facet normal -0.965931 0.258799 0
    outer loop
      vertex 69.1168 17.7247 0
      vertex 69.1628 17.8965 2
      vertex 69.1628 17.8965 0
    endloop
  endfacet
  facet normal -0.965931 0.258799 0
    outer loop
      vertex 69.1628 17.8965 2
      vertex 69.1168 17.7247 0
      vertex 69.1168 17.7247 2
    endloop
  endfacet
  facet normal -0.998631 0.0523085 0
    outer loop
      vertex 69.1907 18.0723 0
      vertex 69.2 18.25 2
      vertex 69.2 18.25 0
    endloop
  endfacet
  facet normal -0.998631 0.0523085 0
    outer loop
      vertex 69.2 18.25 2
      vertex 69.1907 18.0723 0
      vertex 69.1907 18.0723 2
    endloop
  endfacet
  facet normal -0.838665 0.544647 0
    outer loop
      vertex 68.8753 17.2508 0
      vertex 68.9722 17.4 2
      vertex 68.9722 17.4 0
    endloop
  endfacet
  facet normal -0.838665 0.544647 0
    outer loop
      vertex 68.9722 17.4 2
      vertex 68.8753 17.2508 0
      vertex 68.8753 17.2508 2
    endloop
  endfacet
  facet normal -0.891017 0.453971 0
    outer loop
      vertex 68.9722 17.4 0
      vertex 69.053 17.5585 2
      vertex 69.053 17.5585 0
    endloop
  endfacet
  facet normal -0.891017 0.453971 0
    outer loop
      vertex 69.053 17.5585 2
      vertex 68.9722 17.4 0
      vertex 68.9722 17.4 2
    endloop
  endfacet
  facet normal -0.777141 0.629327 0
    outer loop
      vertex 68.7633 17.1125 0
      vertex 68.8753 17.2508 2
      vertex 68.8753 17.2508 0
    endloop
  endfacet
  facet normal -0.777141 0.629327 0
    outer loop
      vertex 68.8753 17.2508 2
      vertex 68.7633 17.1125 0
      vertex 68.7633 17.1125 2
    endloop
  endfacet
  facet normal -0.156433 -0.987689 0
    outer loop
      vertex 67.6777 19.9407 0
      vertex 67.8534 19.9129 2
      vertex 67.6777 19.9407 2
    endloop
  endfacet
  facet normal -0.156433 -0.987689 -0
    outer loop
      vertex 67.8534 19.9129 2
      vertex 67.6777 19.9407 0
      vertex 67.8534 19.9129 0
    endloop
  endfacet
  facet normal -0.629331 -0.777137 0
    outer loop
      vertex 68.4992 19.6253 0
      vertex 68.6375 19.5133 2
      vertex 68.4992 19.6253 2
    endloop
  endfacet
  facet normal -0.629331 -0.777137 -0
    outer loop
      vertex 68.6375 19.5133 2
      vertex 68.4992 19.6253 0
      vertex 68.6375 19.5133 0
    endloop
  endfacet
  facet normal -0.358368 -0.933581 0
    outer loop
      vertex 68.0253 19.8668 0
      vertex 68.1915 19.803 2
      vertex 68.0253 19.8668 2
    endloop
  endfacet
  facet normal -0.358368 -0.933581 -0
    outer loop
      vertex 68.1915 19.803 2
      vertex 68.0253 19.8668 0
      vertex 68.1915 19.803 0
    endloop
  endfacet
  facet normal -0.0523411 -0.998629 0
    outer loop
      vertex 67.5 19.95 0
      vertex 67.6777 19.9407 2
      vertex 67.5 19.95 2
    endloop
  endfacet
  facet normal -0.0523411 -0.998629 -0
    outer loop
      vertex 67.6777 19.9407 2
      vertex 67.5 19.95 0
      vertex 67.6777 19.9407 0
    endloop
  endfacet
  facet normal -0.838665 -0.544647 0
    outer loop
      vertex 68.9722 19.1 0
      vertex 68.8753 19.2492 2
      vertex 68.8753 19.2492 0
    endloop
  endfacet
  facet normal -0.838665 -0.544647 0
    outer loop
      vertex 68.8753 19.2492 2
      vertex 68.9722 19.1 0
      vertex 68.9722 19.1 2
    endloop
  endfacet
  facet normal -0.777141 -0.629327 0
    outer loop
      vertex 68.8753 19.2492 0
      vertex 68.7633 19.3875 2
      vertex 68.7633 19.3875 0
    endloop
  endfacet
  facet normal -0.777141 -0.629327 0
    outer loop
      vertex 68.7633 19.3875 2
      vertex 68.8753 19.2492 0
      vertex 68.8753 19.2492 2
    endloop
  endfacet
  facet normal -0.965931 -0.258799 0
    outer loop
      vertex 69.1628 18.6035 0
      vertex 69.1168 18.7753 2
      vertex 69.1168 18.7753 0
    endloop
  endfacet
  facet normal -0.965931 -0.258799 0
    outer loop
      vertex 69.1168 18.7753 2
      vertex 69.1628 18.6035 0
      vertex 69.1628 18.6035 2
    endloop
  endfacet
  facet normal 0.0523411 0.998629 -0
    outer loop
      vertex 67.5 16.55 0
      vertex 67.3223 16.5593 2
      vertex 67.5 16.55 2
    endloop
  endfacet
  facet normal 0.0523411 0.998629 0
    outer loop
      vertex 67.3223 16.5593 2
      vertex 67.5 16.55 0
      vertex 67.3223 16.5593 0
    endloop
  endfacet
  facet normal 0.890999 0.454005 0
    outer loop
      vertex 66.0278 17.4 2
      vertex 65.947 17.5585 0
      vertex 65.947 17.5585 2
    endloop
  endfacet
  facet normal 0.890999 0.454005 0
    outer loop
      vertex 65.947 17.5585 0
      vertex 66.0278 17.4 2
      vertex 66.0278 17.4 0
    endloop
  endfacet
  facet normal 0.777141 0.629327 0
    outer loop
      vertex 66.2367 17.1125 2
      vertex 66.1247 17.2508 0
      vertex 66.1247 17.2508 2
    endloop
  endfacet
  facet normal 0.777141 0.629327 0
    outer loop
      vertex 66.1247 17.2508 0
      vertex 66.2367 17.1125 2
      vertex 66.2367 17.1125 0
    endloop
  endfacet
  facet normal 0.629331 0.777137 -0
    outer loop
      vertex 66.5008 16.8747 0
      vertex 66.3625 16.9867 2
      vertex 66.5008 16.8747 2
    endloop
  endfacet
  facet normal 0.629331 0.777137 0
    outer loop
      vertex 66.3625 16.9867 2
      vertex 66.5008 16.8747 0
      vertex 66.3625 16.9867 0
    endloop
  endfacet
  facet normal 0.54463 0.838677 -0
    outer loop
      vertex 66.65 16.7778 0
      vertex 66.5008 16.8747 2
      vertex 66.65 16.7778 2
    endloop
  endfacet
  facet normal 0.54463 0.838677 0
    outer loop
      vertex 66.5008 16.8747 2
      vertex 66.65 16.7778 0
      vertex 66.5008 16.8747 0
    endloop
  endfacet
  facet normal 0.777141 -0.629327 0
    outer loop
      vertex 66.1247 19.2492 2
      vertex 66.2367 19.3875 0
      vertex 66.2367 19.3875 2
    endloop
  endfacet
  facet normal 0.777141 -0.629327 0
    outer loop
      vertex 66.2367 19.3875 0
      vertex 66.1247 19.2492 2
      vertex 66.1247 19.2492 0
    endloop
  endfacet
  facet normal 0.838665 -0.544647 0
    outer loop
      vertex 66.0278 19.1 2
      vertex 66.1247 19.2492 0
      vertex 66.1247 19.2492 2
    endloop
  endfacet
  facet normal 0.838665 -0.544647 0
    outer loop
      vertex 66.1247 19.2492 0
      vertex 66.0278 19.1 2
      vertex 66.0278 19.1 0
    endloop
  endfacet
  facet normal 0.890999 -0.454005 0
    outer loop
      vertex 65.947 18.9415 2
      vertex 66.0278 19.1 0
      vertex 66.0278 19.1 2
    endloop
  endfacet
  facet normal 0.890999 -0.454005 0
    outer loop
      vertex 66.0278 19.1 0
      vertex 65.947 18.9415 2
      vertex 65.947 18.9415 0
    endloop
  endfacet
  facet normal 0.998629 -0.0523512 0
    outer loop
      vertex 65.8 18.25 2
      vertex 65.8093 18.4277 0
      vertex 65.8093 18.4277 2
    endloop
  endfacet
  facet normal 0.998629 -0.0523512 0
    outer loop
      vertex 65.8093 18.4277 0
      vertex 65.8 18.25 2
      vertex 65.8 18.25 0
    endloop
  endfacet
  facet normal 0.454001 -0.891001 0
    outer loop
      vertex 66.65 19.7222 0
      vertex 66.8085 19.803 2
      vertex 66.65 19.7222 2
    endloop
  endfacet
  facet normal 0.454001 -0.891001 0
    outer loop
      vertex 66.8085 19.803 2
      vertex 66.65 19.7222 0
      vertex 66.8085 19.803 0
    endloop
  endfacet
  facet normal -0.258814 -0.965927 0
    outer loop
      vertex 67.8534 19.9129 0
      vertex 68.0253 19.8668 2
      vertex 67.8534 19.9129 2
    endloop
  endfacet
  facet normal -0.258814 -0.965927 -0
    outer loop
      vertex 68.0253 19.8668 2
      vertex 67.8534 19.9129 0
      vertex 68.0253 19.8668 0
    endloop
  endfacet
  facet normal -0.891017 -0.453971 0
    outer loop
      vertex 69.053 18.9415 0
      vertex 68.9722 19.1 2
      vertex 68.9722 19.1 0
    endloop
  endfacet
  facet normal -0.891017 -0.453971 0
    outer loop
      vertex 68.9722 19.1 2
      vertex 69.053 18.9415 0
      vertex 69.053 18.9415 2
    endloop
  endfacet
  facet normal 0.933584 0.358358 0
    outer loop
      vertex 65.947 17.5585 2
      vertex 65.8832 17.7247 0
      vertex 65.8832 17.7247 2
    endloop
  endfacet
  facet normal 0.933584 0.358358 0
    outer loop
      vertex 65.8832 17.7247 0
      vertex 65.947 17.5585 2
      vertex 65.947 17.5585 0
    endloop
  endfacet
  facet normal 0.838665 0.544647 0
    outer loop
      vertex 66.1247 17.2508 2
      vertex 66.0278 17.4 0
      vertex 66.0278 17.4 2
    endloop
  endfacet
  facet normal 0.838665 0.544647 0
    outer loop
      vertex 66.0278 17.4 0
      vertex 66.1247 17.2508 2
      vertex 66.1247 17.2508 0
    endloop
  endfacet
  facet normal 0.358368 0.933581 -0
    outer loop
      vertex 66.9747 16.6332 0
      vertex 66.8085 16.697 2
      vertex 66.9747 16.6332 2
    endloop
  endfacet
  facet normal 0.358368 0.933581 0
    outer loop
      vertex 66.8085 16.697 2
      vertex 66.9747 16.6332 0
      vertex 66.8085 16.697 0
    endloop
  endfacet
  facet normal 0.156426 0.98769 -0
    outer loop
      vertex 67.3223 16.5593 0
      vertex 67.1465 16.5871 2
      vertex 67.3223 16.5593 2
    endloop
  endfacet
  facet normal 0.156426 0.98769 0
    outer loop
      vertex 67.1465 16.5871 2
      vertex 67.3223 16.5593 0
      vertex 67.1465 16.5871 0
    endloop
  endfacet
  facet normal 0.933584 -0.358358 0
    outer loop
      vertex 65.8832 18.7753 2
      vertex 65.947 18.9415 0
      vertex 65.947 18.9415 2
    endloop
  endfacet
  facet normal 0.933584 -0.358358 0
    outer loop
      vertex 65.947 18.9415 0
      vertex 65.8832 18.7753 2
      vertex 65.8832 18.7753 0
    endloop
  endfacet
  facet normal 0.987686 -0.156452 0
    outer loop
      vertex 65.8093 18.4277 2
      vertex 65.8372 18.6035 0
      vertex 65.8372 18.6035 2
    endloop
  endfacet
  facet normal 0.987686 -0.156452 0
    outer loop
      vertex 65.8372 18.6035 0
      vertex 65.8093 18.4277 2
      vertex 65.8093 18.4277 0
    endloop
  endfacet
  facet normal 0.998629 0.0523512 0
    outer loop
      vertex 65.8093 18.0723 2
      vertex 65.8 18.25 0
      vertex 65.8 18.25 2
    endloop
  endfacet
  facet normal 0.998629 0.0523512 0
    outer loop
      vertex 65.8 18.25 0
      vertex 65.8093 18.0723 2
      vertex 65.8093 18.0723 0
    endloop
  endfacet
  facet normal 0.54463 -0.838677 0
    outer loop
      vertex 66.5008 19.6253 0
      vertex 66.65 19.7222 2
      vertex 66.5008 19.6253 2
    endloop
  endfacet
  facet normal 0.54463 -0.838677 0
    outer loop
      vertex 66.65 19.7222 2
      vertex 66.5008 19.6253 0
      vertex 66.65 19.7222 0
    endloop
  endfacet
  facet normal 0.358368 -0.933581 0
    outer loop
      vertex 66.8085 19.803 0
      vertex 66.9747 19.8668 2
      vertex 66.8085 19.803 2
    endloop
  endfacet
  facet normal 0.358368 -0.933581 0
    outer loop
      vertex 66.9747 19.8668 2
      vertex 66.8085 19.803 0
      vertex 66.9747 19.8668 0
    endloop
  endfacet
endsolid OpenSCAD_Model
