solid OpenSCAD_Model
  facet normal -1 0 0
    outer loop
      vertex 0 -4 0
      vertex 0 -2 32.1
      vertex 0 -2 0
    endloop
  endfacet
  facet normal -1 -0 0
    outer loop
      vertex 0 -2 32.1
      vertex 0 -4 0
      vertex 0 -4 32.1
    endloop
  endfacet
  facet normal -0 0 1
    outer loop
      vertex 0 -2 32.1
      vertex 4 -4 32.1
      vertex 4 -2 32.1
    endloop
  endfacet
  facet normal 0 0 1
    outer loop
      vertex 4 -4 32.1
      vertex 0 -2 32.1
      vertex 0 -4 32.1
    endloop
  endfacet
  facet normal -0 0 1
    outer loop
      vertex 38 -2 32.1
      vertex 42 -4 32.1
      vertex 42 -2 32.1
    endloop
  endfacet
  facet normal 0 0 1
    outer loop
      vertex 42 -4 32.1
      vertex 38 -2 32.1
      vertex 38 -4 32.1
    endloop
  endfacet
  facet normal 1 -0 0
    outer loop
      vertex 42 -4 32.1
      vertex 42 -2 0
      vertex 42 -2 32.1
    endloop
  endfacet
  facet normal 1 0 0
    outer loop
      vertex 42 -2 0
      vertex 42 -4 32.1
      vertex 42 -4 0
    endloop
  endfacet
  facet normal 0 0 -1
    outer loop
      vertex 0 -4 0
      vertex 4 -2 0
      vertex 4 -4 0
    endloop
  endfacet
  facet normal -0 0 -1
    outer loop
      vertex 4 -2 0
      vertex 0 -4 0
      vertex 0 -2 0
    endloop
  endfacet
  facet normal 0 0 -1
    outer loop
      vertex 38 -4 0
      vertex 42 -2 0
      vertex 42 -4 0
    endloop
  endfacet
  facet normal -0 0 -1
    outer loop
      vertex 42 -2 0
      vertex 38 -4 0
      vertex 38 -2 0
    endloop
  endfacet
  facet normal 0 -1 0
    outer loop
      vertex 0 -4 32.1
      vertex 4 -4 28.5
      vertex 4 -4 32.1
    endloop
  endfacet
  facet normal 0 -1 0
    outer loop
      vertex 4 -4 28.5
      vertex 4 -4 4
      vertex 38 -4 28.5
    endloop
  endfacet
  facet normal 0 -1 0
    outer loop
      vertex 0 -4 32.1
      vertex 4 -4 4
      vertex 4 -4 28.5
    endloop
  endfacet
  facet normal 0 -1 0
    outer loop
      vertex 0 -4 0
      vertex 4 -4 4
      vertex 0 -4 32.1
    endloop
  endfacet
  facet normal 0 -1 -0
    outer loop
      vertex 4 -4 4
      vertex 0 -4 0
      vertex 4 -4 0
    endloop
  endfacet
  facet normal 0 -1 0
    outer loop
      vertex 38 -4 28.5
      vertex 42 -4 32.1
      vertex 38 -4 32.1
    endloop
  endfacet
  facet normal 0 -1 0
    outer loop
      vertex 38 -4 4
      vertex 38 -4 28.5
      vertex 4 -4 4
    endloop
  endfacet
  facet normal 0 -1 0
    outer loop
      vertex 38 -4 4
      vertex 42 -4 32.1
      vertex 38 -4 28.5
    endloop
  endfacet
  facet normal 0 -1 0
    outer loop
      vertex 42 -4 0
      vertex 38 -4 4
      vertex 38 -4 0
    endloop
  endfacet
  facet normal 0 -1 0
    outer loop
      vertex 38 -4 4
      vertex 42 -4 0
      vertex 42 -4 32.1
    endloop
  endfacet
  facet normal 0 1 0
    outer loop
      vertex 42 -2 32.1
      vertex 38 -2 28.5
      vertex 38 -2 32.1
    endloop
  endfacet
  facet normal 0 1 0
    outer loop
      vertex 38 -2 28.5
      vertex 38 -2 4
      vertex 4 -2 28.5
    endloop
  endfacet
  facet normal 0 1 0
    outer loop
      vertex 42 -2 32.1
      vertex 38 -2 4
      vertex 38 -2 28.5
    endloop
  endfacet
  facet normal 0 1 -0
    outer loop
      vertex 42 -2 0
      vertex 38 -2 4
      vertex 42 -2 32.1
    endloop
  endfacet
  facet normal 0 1 0
    outer loop
      vertex 38 -2 4
      vertex 42 -2 0
      vertex 38 -2 0
    endloop
  endfacet
  facet normal 0 1 -0
    outer loop
      vertex 4 -2 28.5
      vertex 0 -2 32.1
      vertex 4 -2 32.1
    endloop
  endfacet
  facet normal 0 1 0
    outer loop
      vertex 4 -2 4
      vertex 4 -2 28.5
      vertex 38 -2 4
    endloop
  endfacet
  facet normal 0 1 -0
    outer loop
      vertex 4 -2 4
      vertex 0 -2 32.1
      vertex 4 -2 28.5
    endloop
  endfacet
  facet normal 0 1 0
    outer loop
      vertex 0 -2 0
      vertex 4 -2 4
      vertex 4 -2 0
    endloop
  endfacet
  facet normal 0 1 0
    outer loop
      vertex 4 -2 4
      vertex 0 -2 0
      vertex 0 -2 32.1
    endloop
  endfacet
  facet normal 1 -0 0
    outer loop
      vertex 4 -4 4
      vertex 4 -2 0
      vertex 4 -2 4
    endloop
  endfacet
  facet normal 1 0 0
    outer loop
      vertex 4 -2 0
      vertex 4 -4 4
      vertex 4 -4 0
    endloop
  endfacet
  facet normal 0 0 -1
    outer loop
      vertex 4 -4 4
      vertex 38 -2 4
      vertex 38 -4 4
    endloop
  endfacet
  facet normal -0 0 -1
    outer loop
      vertex 38 -2 4
      vertex 4 -4 4
      vertex 4 -2 4
    endloop
  endfacet
  facet normal -1 0 0
    outer loop
      vertex 38 -4 0
      vertex 38 -2 4
      vertex 38 -2 0
    endloop
  endfacet
  facet normal -1 -0 0
    outer loop
      vertex 38 -2 4
      vertex 38 -4 0
      vertex 38 -4 4
    endloop
  endfacet
  facet normal 1 -0 0
    outer loop
      vertex 4 -4 32.1
      vertex 4 -2 28.5
      vertex 4 -2 32.1
    endloop
  endfacet
  facet normal 1 0 0
    outer loop
      vertex 4 -2 28.5
      vertex 4 -4 32.1
      vertex 4 -4 28.5
    endloop
  endfacet
  facet normal -1 0 0
    outer loop
      vertex 38 -4 28.5
      vertex 38 -2 32.1
      vertex 38 -2 28.5
    endloop
  endfacet
  facet normal -1 -0 0
    outer loop
      vertex 38 -2 32.1
      vertex 38 -4 28.5
      vertex 38 -4 32.1
    endloop
  endfacet
  facet normal -0 0 1
    outer loop
      vertex 4 -2 28.5
      vertex 38 -4 28.5
      vertex 38 -2 28.5
    endloop
  endfacet
  facet normal 0 0 1
    outer loop
      vertex 38 -4 28.5
      vertex 4 -2 28.5
      vertex 4 -4 28.5
    endloop
  endfacet
endsolid OpenSCAD_Model
